<?xml version="1.0" encoding="UTF-8"?>
<svg xmlns="http://www.w3.org/2000/svg" xmlns:xlink="http://www.w3.org/1999/xlink" width="1605pt" height="546pt" viewBox="0 0 1605 546" version="1.1">
<g id="surface1">
<path style="fill-rule:nonzero;fill:rgb(60.784314%,1.960784%,3.137255%);fill-opacity:0.2;stroke-width:0.01;stroke-linecap:butt;stroke-linejoin:miter;stroke:rgb(60.784314%,1.960784%,3.137255%);stroke-opacity:1;stroke-miterlimit:10;" d="M -0.720004 1.919995 C -0.720004 1.961893 -0.758115 1.999995 -0.799988 1.999995 C -2.480006 1.999995 -4.159995 1.999995 -5.840013 1.999995 C -5.881886 1.999995 -5.919998 1.961893 -5.919998 1.919995 C -5.919998 0.639998 -5.919998 -0.639998 -5.919998 -1.919995 C -5.919998 -1.961893 -5.881886 -1.999995 -5.840013 -1.999995 C -4.159995 -1.999995 -2.480006 -1.999995 -0.799988 -1.999995 C -0.758115 -1.999995 -0.720004 -1.961893 -0.720004 -1.919995 C -0.720004 -0.639998 -0.720004 0.639998 -0.720004 1.919995 Z M -0.720004 1.919995 " transform="matrix(134.987384,0,0,-134.814815,802.5,273)"/>
<path style=" stroke:none;fill-rule:nonzero;fill:rgb(0%,0%,0%);fill-opacity:1;" d="M 644.824219 32.917969 C 644.824219 32.878906 644.824219 32.457031 644.277344 32.457031 C 643.3125 32.457031 640.242188 32.792969 639.152344 32.878906 C 638.816406 32.917969 638.351562 32.960938 638.351562 33.71875 C 638.351562 34.222656 638.730469 34.222656 639.359375 34.222656 C 641.378906 34.222656 641.460938 34.515625 641.460938 34.933594 C 641.421875 35.214844 641.378906 35.492188 641.335938 35.773438 C 639.304688 43.832031 637.273438 51.890625 635.242188 59.949219 C 635.074219 60.539062 635.074219 60.621094 635.074219 60.875 C 635.074219 61.839844 635.914062 62.046875 636.292969 62.046875 C 636.839844 62.046875 637.46875 61.671875 637.722656 61.167969 C 637.933594 60.789062 639.824219 53.023438 640.074219 51.976562 C 641.503906 52.101562 644.949219 52.773438 644.949219 55.542969 C 644.949219 55.835938 644.949219 56.003906 644.824219 56.425781 C 644.742188 56.929688 644.65625 57.429688 644.65625 57.894531 C 644.65625 60.371094 646.335938 62.046875 648.523438 62.046875 C 649.785156 62.046875 650.917969 61.375 651.84375 59.824219 C 652.894531 57.976562 653.355469 55.667969 653.355469 55.585938 C 653.355469 55.164062 652.976562 55.164062 652.851562 55.164062 C 652.429688 55.164062 652.390625 55.332031 652.261719 55.921875 C 651.421875 58.984375 650.457031 61.125 648.605469 61.125 C 647.808594 61.125 647.261719 60.664062 647.261719 59.152344 C 647.261719 58.4375 647.429688 57.472656 647.597656 56.800781 C 647.765625 56.089844 647.765625 55.921875 647.765625 55.5 C 647.765625 52.773438 645.117188 51.554688 641.546875 51.09375 C 642.847656 50.339844 644.195312 48.996094 645.160156 47.988281 C 647.179688 45.761719 649.109375 43.957031 651.171875 43.957031 C 651.421875 43.957031 651.464844 43.957031 651.546875 44 C 652.054688 44.085938 652.09375 44.085938 652.429688 44.335938 C 652.515625 44.378906 652.515625 44.421875 652.597656 44.503906 C 650.582031 44.628906 650.203125 46.265625 650.203125 46.769531 C 650.203125 47.441406 650.664062 48.238281 651.800781 48.238281 C 652.894531 48.238281 654.113281 47.316406 654.113281 45.679688 C 654.113281 44.421875 653.144531 43.035156 651.253906 43.035156 C 650.078125 43.035156 648.144531 43.371094 645.117188 46.730469 C 643.691406 48.324219 642.050781 50.003906 640.453125 50.632812 C 641.910156 44.726562 643.367188 38.824219 644.824219 32.917969 Z M 644.824219 32.917969 "/>
<path style=" stroke:none;fill-rule:nonzero;fill:rgb(0%,0%,0%);fill-opacity:1;" d="M 668.261719 61.242188 C 671.261719 61.242188 674.265625 61.242188 677.265625 61.242188 C 677.648438 61.242188 678.351562 61.242188 678.351562 60.539062 C 678.351562 59.804688 677.675781 59.804688 677.265625 59.804688 C 674.265625 59.804688 671.261719 59.804688 668.261719 59.804688 C 668.261719 56.796875 668.261719 53.789062 668.261719 50.78125 C 668.261719 50.402344 668.261719 49.695312 667.554688 49.695312 C 666.820312 49.695312 666.820312 50.371094 666.820312 50.78125 C 666.820312 53.789062 666.820312 56.796875 666.820312 59.804688 C 663.808594 59.804688 660.800781 59.804688 657.789062 59.804688 C 657.40625 59.804688 656.699219 59.804688 656.699219 60.507812 C 656.699219 61.242188 657.378906 61.242188 657.789062 61.242188 C 660.800781 61.242188 663.808594 61.242188 666.820312 61.242188 C 666.820312 64.25 666.820312 67.253906 666.820312 70.261719 C 666.820312 70.644531 666.820312 71.347656 667.527344 71.347656 C 668.261719 71.347656 668.261719 70.671875 668.261719 70.261719 C 668.261719 67.253906 668.261719 64.25 668.261719 61.242188 Z M 668.261719 61.242188 "/>
<path style="fill:none;stroke-width:0.04;stroke-linecap:butt;stroke-linejoin:miter;stroke:rgb(60.784314%,1.960784%,3.137255%);stroke-opacity:1;stroke-miterlimit:10;" d="M -0.319995 0 C -0.19999 0 -0.0800133 0 0.0399922 0 " transform="matrix(134.987384,0,0,-134.814815,802.5,273)"/>
<path style=" stroke:none;fill-rule:nonzero;fill:rgb(60.784314%,1.960784%,3.137255%);fill-opacity:1;" d="M 845.695312 273 C 833.097656 266.707031 820.5 260.417969 807.898438 254.125 C 807.898438 266.707031 807.898438 279.292969 807.898438 291.875 C 820.5 285.582031 833.097656 279.292969 845.695312 273 Z M 845.695312 273 "/>
<path style="fill-rule:nonzero;fill:rgb(60.784314%,1.960784%,3.137255%);fill-opacity:0.3;stroke-width:0.01;stroke-linecap:butt;stroke-linejoin:miter;stroke:rgb(60.784314%,1.960784%,3.137255%);stroke-opacity:1;stroke-miterlimit:10;" d="M 4.120003 0 C 4.120003 0.209431 4.033768 0.417587 3.885693 0.565678 C 3.737589 0.713768 3.529439 0.799998 3.319986 0.799998 C 3.110563 0.799998 2.902412 0.713768 2.754308 0.565678 C 2.606204 0.417587 2.519998 0.209431 2.519998 0 C 2.519998 -0.209431 2.606204 -0.417587 2.754308 -0.565678 C 2.902412 -0.713768 3.110563 -0.799998 3.319986 -0.799998 C 3.529439 -0.799998 3.737589 -0.713768 3.885693 -0.565678 C 4.033768 -0.417587 4.120003 -0.209431 4.120003 0 Z M 4.120003 0 " transform="matrix(134.987384,0,0,-134.814815,802.5,273)"/>
<path style=" stroke:none;fill-rule:nonzero;fill:rgb(0%,0%,0%);fill-opacity:1;" d="M 1239.09375 258.667969 C 1239.09375 258.625 1239.09375 258.203125 1238.546875 258.203125 C 1237.578125 258.203125 1234.511719 258.539062 1233.417969 258.625 C 1233.082031 258.667969 1232.621094 258.707031 1232.621094 259.464844 C 1232.621094 259.96875 1233 259.96875 1233.628906 259.96875 C 1235.644531 259.96875 1235.730469 260.261719 1235.730469 260.679688 C 1235.6875 260.960938 1235.644531 261.242188 1235.605469 261.519531 C 1233.574219 269.578125 1231.542969 277.636719 1229.511719 285.695312 C 1229.34375 286.285156 1229.34375 286.367188 1229.34375 286.621094 C 1229.34375 287.585938 1230.183594 287.796875 1230.5625 287.796875 C 1231.109375 287.796875 1231.738281 287.417969 1231.988281 286.914062 C 1232.199219 286.535156 1234.089844 278.769531 1234.34375 277.722656 C 1235.773438 277.847656 1239.21875 278.519531 1239.21875 281.289062 C 1239.21875 281.582031 1239.21875 281.75 1239.09375 282.171875 C 1239.007812 282.675781 1238.925781 283.179688 1238.925781 283.640625 C 1238.925781 286.117188 1240.605469 287.796875 1242.789062 287.796875 C 1244.050781 287.796875 1245.1875 287.125 1246.109375 285.570312 C 1247.160156 283.722656 1247.625 281.414062 1247.625 281.332031 C 1247.625 280.910156 1247.246094 280.910156 1247.121094 280.910156 C 1246.699219 280.910156 1246.65625 281.078125 1246.53125 281.667969 C 1245.691406 284.730469 1244.722656 286.871094 1242.875 286.871094 C 1242.078125 286.871094 1241.53125 286.410156 1241.53125 284.898438 C 1241.53125 284.1875 1241.699219 283.21875 1241.867188 282.546875 C 1242.035156 281.835938 1242.035156 281.667969 1242.035156 281.246094 C 1242.035156 278.519531 1239.386719 277.300781 1235.816406 276.839844 C 1237.117188 276.085938 1238.460938 274.742188 1239.429688 273.734375 C 1241.445312 271.511719 1243.378906 269.707031 1245.4375 269.707031 C 1245.691406 269.707031 1245.734375 269.707031 1245.816406 269.746094 C 1246.320312 269.832031 1246.363281 269.832031 1246.699219 270.082031 C 1246.785156 270.125 1246.785156 270.167969 1246.867188 270.25 C 1244.851562 270.375 1244.472656 272.011719 1244.472656 272.515625 C 1244.472656 273.1875 1244.933594 273.988281 1246.070312 273.988281 C 1247.160156 273.988281 1248.378906 273.0625 1248.378906 271.425781 C 1248.378906 270.167969 1247.414062 268.78125 1245.523438 268.78125 C 1244.347656 268.78125 1242.414062 269.117188 1239.386719 272.476562 C 1237.957031 274.070312 1236.320312 275.75 1234.722656 276.378906 C 1236.179688 270.476562 1237.636719 264.570312 1239.09375 258.667969 Z M 1239.09375 258.667969 "/>
<path style=" stroke:none;fill-rule:nonzero;fill:rgb(0%,0%,0%);fill-opacity:1;" d="M 1270.796875 286.988281 C 1271.269531 286.988281 1271.972656 286.988281 1271.972656 286.285156 C 1271.972656 285.550781 1271.296875 285.550781 1270.796875 285.550781 C 1264.953125 285.550781 1259.109375 285.550781 1253.265625 285.550781 C 1252.792969 285.550781 1252.085938 285.550781 1252.085938 286.253906 C 1252.085938 286.988281 1252.765625 286.988281 1253.265625 286.988281 C 1259.109375 286.988281 1264.953125 286.988281 1270.796875 286.988281 Z M 1270.796875 286.988281 "/>
<path style="fill-rule:nonzero;fill:rgb(60.784314%,1.960784%,3.137255%);fill-opacity:0.2;stroke-width:0.01;stroke-linecap:butt;stroke-linejoin:miter;stroke:rgb(60.784314%,1.960784%,3.137255%);stroke-opacity:1;stroke-miterlimit:10;" d="M 5.919998 1.919995 C 5.919998 1.961893 5.881886 1.999995 5.840013 1.999995 C 4.159995 1.999995 2.480006 1.999995 0.799988 1.999995 C 0.758115 1.999995 0.720004 1.961893 0.720004 1.919995 C 0.720004 0.639998 0.720004 -0.639998 0.720004 -1.919995 C 0.720004 -1.961893 0.758115 -1.999995 0.799988 -1.999995 C 2.480006 -1.999995 4.159995 -1.999995 5.840013 -1.999995 C 5.881886 -1.999995 5.919998 -1.961893 5.919998 -1.919995 C 5.919998 -0.639998 5.919998 0.639998 5.919998 1.919995 Z M 5.919998 1.919995 " transform="matrix(134.987384,0,0,-134.814815,802.5,273)"/>
<path style=" stroke:none;fill-rule:nonzero;fill:rgb(0%,0%,0%);fill-opacity:1;" d="M 1541.140625 32.917969 C 1541.140625 32.878906 1541.140625 32.457031 1540.59375 32.457031 C 1539.628906 32.457031 1536.558594 32.792969 1535.46875 32.878906 C 1535.132812 32.917969 1534.667969 32.960938 1534.667969 33.71875 C 1534.667969 34.222656 1535.046875 34.222656 1535.675781 34.222656 C 1537.695312 34.222656 1537.777344 34.515625 1537.777344 34.933594 C 1537.738281 35.214844 1537.695312 35.492188 1537.652344 35.773438 C 1535.621094 43.832031 1533.589844 51.890625 1531.558594 59.949219 C 1531.390625 60.539062 1531.390625 60.621094 1531.390625 60.875 C 1531.390625 61.839844 1532.230469 62.046875 1532.609375 62.046875 C 1533.15625 62.046875 1533.785156 61.671875 1534.039062 61.167969 C 1534.25 60.789062 1536.140625 53.023438 1536.390625 51.976562 C 1537.820312 52.101562 1541.265625 52.773438 1541.265625 55.542969 C 1541.265625 55.835938 1541.265625 56.003906 1541.140625 56.425781 C 1541.054688 56.929688 1540.972656 57.429688 1540.972656 57.894531 C 1540.972656 60.371094 1542.652344 62.046875 1544.839844 62.046875 C 1546.101562 62.046875 1547.234375 61.375 1548.160156 59.824219 C 1549.210938 57.976562 1549.671875 55.667969 1549.671875 55.585938 C 1549.671875 55.164062 1549.292969 55.164062 1549.167969 55.164062 C 1548.746094 55.164062 1548.707031 55.332031 1548.578125 55.921875 C 1547.738281 58.984375 1546.773438 61.125 1544.921875 61.125 C 1544.125 61.125 1543.578125 60.664062 1543.578125 59.152344 C 1543.578125 58.4375 1543.746094 57.472656 1543.914062 56.800781 C 1544.082031 56.089844 1544.082031 55.921875 1544.082031 55.5 C 1544.082031 52.773438 1541.433594 51.554688 1537.863281 51.09375 C 1539.164062 50.339844 1540.511719 48.996094 1541.476562 47.988281 C 1543.492188 45.761719 1545.425781 43.957031 1547.488281 43.957031 C 1547.738281 43.957031 1547.78125 43.957031 1547.863281 44 C 1548.367188 44.085938 1548.410156 44.085938 1548.746094 44.335938 C 1548.832031 44.378906 1548.832031 44.421875 1548.914062 44.503906 C 1546.898438 44.628906 1546.519531 46.265625 1546.519531 46.769531 C 1546.519531 47.441406 1546.980469 48.238281 1548.117188 48.238281 C 1549.210938 48.238281 1550.429688 47.316406 1550.429688 45.679688 C 1550.429688 44.421875 1549.460938 43.035156 1547.570312 43.035156 C 1546.394531 43.035156 1544.460938 43.371094 1541.433594 46.730469 C 1540.007812 48.324219 1538.367188 50.003906 1536.769531 50.632812 C 1538.226562 44.726562 1539.683594 38.824219 1541.140625 32.917969 Z M 1541.140625 32.917969 "/>
<path style=" stroke:none;fill-rule:nonzero;fill:rgb(0%,0%,0%);fill-opacity:1;" d="M 1564.578125 61.242188 C 1567.578125 61.242188 1570.578125 61.242188 1573.582031 61.242188 C 1573.964844 61.242188 1574.667969 61.242188 1574.667969 60.539062 C 1574.667969 59.804688 1573.992188 59.804688 1573.582031 59.804688 C 1570.578125 59.804688 1567.578125 59.804688 1564.578125 59.804688 C 1564.578125 56.796875 1564.578125 53.789062 1564.578125 50.78125 C 1564.578125 50.402344 1564.578125 49.695312 1563.871094 49.695312 C 1563.136719 49.695312 1563.136719 50.371094 1563.136719 50.78125 C 1563.136719 53.789062 1563.136719 56.796875 1563.136719 59.804688 C 1560.125 59.804688 1557.117188 59.804688 1554.105469 59.804688 C 1553.722656 59.804688 1553.015625 59.804688 1553.015625 60.507812 C 1553.015625 61.242188 1553.695312 61.242188 1554.105469 61.242188 C 1557.117188 61.242188 1560.125 61.242188 1563.136719 61.242188 C 1563.136719 64.25 1563.136719 67.253906 1563.136719 70.261719 C 1563.136719 70.644531 1563.136719 71.347656 1563.84375 71.347656 C 1564.578125 71.347656 1564.578125 70.671875 1564.578125 70.261719 C 1564.578125 67.253906 1564.578125 64.25 1564.578125 61.242188 Z M 1564.578125 61.242188 "/>
</g>
</svg>
