<?xml version="1.0" encoding="UTF-8"?>
<svg xmlns="http://www.w3.org/2000/svg" xmlns:xlink="http://www.w3.org/1999/xlink" width="1920pt" height="1080pt" viewBox="0 0 1920 1080" version="1.1">
<g id="surface6">
<path style="fill:none;stroke-width:0.02;stroke-linecap:butt;stroke-linejoin:miter;stroke:rgb(0%,0%,0%);stroke-opacity:1;stroke-miterlimit:10;" d="M -2.494994 1 C -0.831655 1 0.831655 1 2.494994 1 " transform="matrix(135,0,0,-135,960,540)"/>
<path style="fill:none;stroke-width:0.02;stroke-linecap:butt;stroke-linejoin:miter;stroke:rgb(0%,0%,0%);stroke-opacity:1;stroke-miterlimit:10;" d="M -2.494994 -2 C -2.494994 -0.666667 -2.494994 0.666667 -2.494994 2 " transform="matrix(135,0,0,-135,960,540)"/>
<path style="fill:none;stroke-width:0.02;stroke-linecap:butt;stroke-linejoin:miter;stroke:rgb(13.72549%,41.960784%,55.686275%);stroke-opacity:1;stroke-miterlimit:10;" d="M -2.085012 -1.971152 C -2.051678 -1.602894 -2.018345 -1.234664 -1.985012 -0.972309 C -1.951678 -0.709954 -1.918345 -0.55353 -1.885012 -0.419821 C -1.851678 -0.286111 -1.818345 -0.175116 -1.785012 -0.0857928 C -1.751678 0.00353009 -1.718345 0.0711806 -1.685012 0.128183 C -1.651678 0.185185 -1.618345 0.23151 -1.585012 0.270284 C -1.551678 0.309028 -1.518345 0.340191 -1.485012 0.366348 C -1.451678 0.392535 -1.418345 0.413715 -1.385012 0.431308 C -1.351678 0.4489 -1.318345 0.462905 -1.285012 0.474248 C -1.251678 0.48559 -1.218345 0.494271 -1.185012 0.500926 C -1.151678 0.507581 -1.118345 0.512182 -1.085012 0.515191 C -1.051678 0.518171 -1.018345 0.51956 -0.985012 0.519647 C -0.951678 0.519734 -0.918345 0.51849 -0.885012 0.516175 C -0.851678 0.51386 -0.818345 0.510446 -0.785012 0.506076 C -0.751678 0.501736 -0.718345 0.496441 -0.685012 0.490336 C -0.651678 0.48423 -0.618345 0.477315 -0.585012 0.469676 C -0.551678 0.462037 -0.518345 0.453675 -0.485012 0.444676 C -0.451678 0.435648 -0.418345 0.425984 -0.385012 0.415712 C -0.351678 0.405469 -0.318345 0.394589 -0.285012 0.383189 C -0.251678 0.371759 -0.218345 0.359809 -0.185012 0.347309 C -0.151678 0.334838 -0.118345 0.321817 -0.0850116 0.308333 C -0.0516782 0.294821 -0.0183449 0.280845 0.0149884 0.266377 C 0.0483218 0.251939 0.0816551 0.237008 0.114988 0.221644 C 0.148322 0.206279 0.181655 0.190451 0.214988 0.17419 C 0.248322 0.157957 0.281655 0.141262 0.314988 0.124161 C 0.348322 0.10706 0.381655 0.0895255 0.414988 0.0715856 C 0.448322 0.0536748 0.481655 0.0353299 0.514988 0.0165799 C 0.548322 -0.00217014 0.581655 -0.0212963 0.614988 -0.0408275 C 0.648322 -0.0603588 0.681655 -0.0802951 0.714988 -0.100579 C 0.748322 -0.120891 0.781655 -0.14158 0.814988 -0.162674 C 0.848322 -0.183738 0.881655 -0.205179 0.914988 -0.226997 C 0.948322 -0.248843 0.981655 -0.271036 1.014988 -0.293605 C 1.048322 -0.316175 1.081655 -0.339091 1.114988 -0.362413 C 1.148322 -0.385706 1.181655 -0.409375 1.214988 -0.43342 C 1.248322 -0.457436 1.281655 -0.481829 1.314988 -0.506597 C 1.348322 -0.531337 1.381655 -0.556453 1.414988 -0.581944 C 1.448322 -0.607407 1.481655 -0.633247 1.514988 -0.659404 C 1.548322 -0.68559 1.581655 -0.712153 1.614988 -0.739034 C 1.648322 -0.765914 1.681655 -0.793171 1.714988 -0.820775 C 1.748322 -0.848351 1.781655 -0.876302 1.814988 -0.904601 C 1.848322 -0.932899 1.881655 -0.961545 1.914988 -0.990538 C 1.948322 -1.019531 1.981655 -1.048872 2.014988 -1.078588 C 2.048351 -1.108275 2.081684 -1.13831 2.114988 -1.168692 C 2.148322 -1.199045 2.181597 -1.229745 2.214988 -1.26088 C 2.24838 -1.292014 2.281887 -1.323582 2.314988 -1.355122 C 2.348119 -1.38669 2.380845 -1.418171 2.414988 -1.451447 C 2.449161 -1.484722 2.484751 -1.519792 2.514988 -1.549855 C 2.545226 -1.57989 2.57011 -1.604977 2.594994 -1.630035 " transform="matrix(135,0,0,-135,960,540)"/>
<path style=" stroke:none;fill-rule:nonzero;fill:rgb(0%,0%,0%);fill-opacity:1;" d="M 1320.515625 388.453125 C 1320.65625 389.855469 1321.601562 391.324219 1323.25 391.324219 C 1323.984375 391.324219 1326.121094 390.835938 1326.121094 387.996094 C 1326.121094 387.34375 1326.121094 386.691406 1326.121094 386.035156 C 1325.828125 386.035156 1325.539062 386.035156 1325.246094 386.035156 C 1325.246094 386.691406 1325.246094 387.34375 1325.246094 387.996094 C 1325.246094 390.027344 1324.371094 390.238281 1323.984375 390.238281 C 1322.828125 390.238281 1322.6875 388.664062 1322.6875 388.488281 C 1322.6875 386.152344 1322.6875 383.816406 1322.6875 381.484375 C 1322.6875 380.011719 1322.6875 378.644531 1321.429688 377.351562 C 1320.0625 375.984375 1318.3125 375.421875 1316.628906 375.421875 C 1313.757812 375.421875 1311.339844 377.070312 1311.339844 379.382812 C 1311.339844 380.433594 1312.042969 381.027344 1312.953125 381.027344 C 1313.933594 381.027344 1314.5625 380.328125 1314.5625 379.417969 C 1314.5625 378.996094 1314.386719 377.839844 1312.777344 377.804688 C 1313.722656 376.578125 1315.4375 376.195312 1316.558594 376.195312 C 1318.277344 376.195312 1320.273438 377.558594 1320.273438 380.675781 C 1320.273438 381.109375 1320.273438 381.542969 1320.273438 381.972656 C 1318.484375 382.078125 1316.035156 382.183594 1313.828125 383.234375 C 1311.199219 384.425781 1310.324219 386.246094 1310.324219 387.789062 C 1310.324219 390.625 1313.722656 391.5 1315.929688 391.5 C 1318.242188 391.5 1319.851562 390.097656 1320.515625 388.453125 Z M 1320.273438 382.707031 C 1320.273438 383.875 1320.273438 385.042969 1320.273438 386.210938 C 1320.273438 389.539062 1317.75 390.730469 1316.175781 390.730469 C 1314.457031 390.730469 1313.023438 389.503906 1313.023438 387.753906 C 1313.023438 385.824219 1314.492188 382.917969 1320.273438 382.707031 Z M 1320.273438 382.707031 "/>
<path style=" stroke:none;fill-rule:nonzero;fill:rgb(0%,0%,0%);fill-opacity:1;" d="M 657.761719 234.003906 C 658.25 232.707031 659.195312 231.691406 661.578125 231.65625 C 661.578125 231.296875 661.578125 230.933594 661.578125 230.570312 C 660.492188 230.640625 659.089844 230.675781 658.179688 230.675781 C 657.128906 230.675781 655.097656 230.605469 654.1875 230.570312 C 654.1875 230.933594 654.1875 231.296875 654.1875 231.65625 C 656.007812 231.691406 656.746094 232.601562 656.746094 233.410156 C 656.746094 233.6875 656.640625 233.898438 656.570312 234.109375 C 654.433594 239.738281 652.296875 245.363281 650.160156 250.992188 C 647.929688 245.09375 645.699219 239.199219 643.46875 233.304688 C 643.257812 232.8125 643.257812 232.742188 643.257812 232.671875 C 643.257812 231.65625 645.257812 231.65625 646.132812 231.65625 C 646.132812 231.296875 646.132812 230.933594 646.132812 230.570312 C 644.871094 230.675781 642.453125 230.675781 641.125 230.675781 C 639.441406 230.675781 637.9375 230.605469 636.675781 230.570312 C 636.675781 230.933594 636.675781 231.296875 636.675781 231.65625 C 638.953125 231.65625 639.617188 231.65625 640.109375 232.988281 C 642.816406 240.15625 645.523438 247.324219 648.234375 254.492188 C 648.476562 255.160156 648.652344 255.265625 649.109375 255.265625 C 649.703125 255.265625 649.773438 255.089844 649.949219 254.597656 C 652.554688 247.734375 655.15625 240.867188 657.761719 234.003906 Z M 657.761719 234.003906 "/>
<path style=" stroke:none;fill-rule:nonzero;fill:rgb(0%,0%,0%);fill-opacity:1;" d="M 673.871094 262.898438 C 673.871094 262.792969 673.871094 262.726562 673.277344 262.128906 C 668.898438 257.714844 667.777344 251.097656 667.777344 245.738281 C 667.777344 239.644531 669.109375 233.550781 673.417969 229.171875 C 673.871094 228.75 673.871094 228.679688 673.871094 228.574219 C 673.871094 228.332031 673.730469 228.226562 673.519531 228.226562 C 673.171875 228.226562 670.019531 230.605469 667.953125 235.054688 C 666.167969 238.90625 665.746094 242.796875 665.746094 245.738281 C 665.746094 248.46875 666.132812 252.707031 668.058594 256.664062 C 670.160156 260.972656 673.171875 263.25 673.519531 263.25 C 673.730469 263.25 673.871094 263.144531 673.871094 262.898438 Z M 673.871094 262.898438 "/>
<path style=" stroke:none;fill-rule:nonzero;fill:rgb(0%,0%,0%);fill-opacity:1;" d="M 687.5625 251.832031 C 687.703125 253.234375 688.648438 254.703125 690.292969 254.703125 C 691.03125 254.703125 693.167969 254.214844 693.167969 251.375 C 693.167969 250.722656 693.167969 250.070312 693.167969 249.414062 C 692.875 249.414062 692.582031 249.414062 692.289062 249.414062 C 692.289062 250.070312 692.289062 250.722656 692.289062 251.375 C 692.289062 253.40625 691.414062 253.617188 691.03125 253.617188 C 689.875 253.617188 689.734375 252.042969 689.734375 251.867188 C 689.734375 249.53125 689.734375 247.195312 689.734375 244.863281 C 689.734375 243.390625 689.734375 242.023438 688.472656 240.730469 C 687.105469 239.363281 685.355469 238.800781 683.675781 238.800781 C 680.800781 238.800781 678.386719 240.449219 678.386719 242.761719 C 678.386719 243.8125 679.085938 244.40625 679.996094 244.40625 C 680.976562 244.40625 681.609375 243.707031 681.609375 242.796875 C 681.609375 242.375 681.433594 241.21875 679.820312 241.183594 C 680.769531 239.957031 682.484375 239.574219 683.605469 239.574219 C 685.320312 239.574219 687.316406 240.9375 687.316406 244.054688 C 687.316406 244.488281 687.316406 244.921875 687.316406 245.351562 C 685.53125 245.457031 683.078125 245.5625 680.871094 246.613281 C 678.246094 247.804688 677.371094 249.625 677.371094 251.167969 C 677.371094 254.003906 680.769531 254.878906 682.972656 254.878906 C 685.285156 254.878906 686.898438 253.476562 687.5625 251.832031 Z M 687.316406 246.085938 C 687.316406 247.253906 687.316406 248.421875 687.316406 249.589844 C 687.316406 252.917969 684.796875 254.109375 683.21875 254.109375 C 681.503906 254.109375 680.066406 252.882812 680.066406 251.132812 C 680.066406 249.203125 681.539062 246.296875 687.316406 246.085938 Z M 687.316406 246.085938 "/>
<path style=" stroke:none;fill-rule:nonzero;fill:rgb(0%,0%,0%);fill-opacity:1;" d="M 703.535156 245.738281 C 703.535156 243.003906 703.148438 238.769531 701.222656 234.808594 C 699.121094 230.5 696.109375 228.226562 695.757812 228.226562 C 695.546875 228.226562 695.40625 228.363281 695.40625 228.574219 C 695.40625 228.679688 695.40625 228.75 696.074219 229.382812 C 699.507812 232.847656 701.503906 238.417969 701.503906 245.738281 C 701.503906 251.726562 700.207031 257.890625 695.863281 262.304688 C 695.40625 262.726562 695.40625 262.792969 695.40625 262.898438 C 695.40625 263.109375 695.546875 263.25 695.757812 263.25 C 696.109375 263.25 699.261719 260.867188 701.328125 256.421875 C 703.113281 252.566406 703.535156 248.679688 703.535156 245.738281 Z M 703.535156 245.738281 "/>
<path style="fill:none;stroke-width:0.005;stroke-linecap:butt;stroke-linejoin:miter;stroke:rgb(0%,0%,0%);stroke-opacity:1;stroke-miterlimit:10;" d="M -1.505006 1 C -1.505006 1.016667 -1.505006 1.033333 -1.505006 1.05 " transform="matrix(135,0,0,-135,960,540)"/>
<path style="fill:none;stroke-width:0.005;stroke-linecap:butt;stroke-linejoin:miter;stroke:rgb(0%,0%,0%);stroke-opacity:1;stroke-miterlimit:10;" d="M -1.505006 1.105556 C -1.505006 1.122222 -1.505006 1.138889 -1.505006 1.155556 " transform="matrix(135,0,0,-135,960,540)"/>
<path style="fill:none;stroke-width:0.005;stroke-linecap:butt;stroke-linejoin:miter;stroke:rgb(0%,0%,0%);stroke-opacity:1;stroke-miterlimit:10;" d="M -1.505006 1.211111 C -1.505006 1.227778 -1.505006 1.244444 -1.505006 1.261111 " transform="matrix(135,0,0,-135,960,540)"/>
<path style="fill:none;stroke-width:0.005;stroke-linecap:butt;stroke-linejoin:miter;stroke:rgb(0%,0%,0%);stroke-opacity:1;stroke-miterlimit:10;" d="M -1.505006 1.316667 C -1.505006 1.333333 -1.505006 1.35 -1.505006 1.366667 " transform="matrix(135,0,0,-135,960,540)"/>
<path style="fill:none;stroke-width:0.005;stroke-linecap:butt;stroke-linejoin:miter;stroke:rgb(0%,0%,0%);stroke-opacity:1;stroke-miterlimit:10;" d="M -1.505006 1.422222 C -1.505006 1.438889 -1.505006 1.455556 -1.505006 1.472222 " transform="matrix(135,0,0,-135,960,540)"/>
<path style="fill:none;stroke-width:0.005;stroke-linecap:butt;stroke-linejoin:miter;stroke:rgb(0%,0%,0%);stroke-opacity:1;stroke-miterlimit:10;" d="M -1.505006 1.527778 C -1.505006 1.544444 -1.505006 1.561111 -1.505006 1.577778 " transform="matrix(135,0,0,-135,960,540)"/>
<path style="fill:none;stroke-width:0.005;stroke-linecap:butt;stroke-linejoin:miter;stroke:rgb(0%,0%,0%);stroke-opacity:1;stroke-miterlimit:10;" d="M -1.505006 1.633333 C -1.505006 1.65 -1.505006 1.666667 -1.505006 1.683333 " transform="matrix(135,0,0,-135,960,540)"/>
<path style="fill:none;stroke-width:0.005;stroke-linecap:butt;stroke-linejoin:miter;stroke:rgb(0%,0%,0%);stroke-opacity:1;stroke-miterlimit:10;" d="M -1.505006 1.738889 C -1.505006 1.755556 -1.505006 1.772222 -1.505006 1.788889 " transform="matrix(135,0,0,-135,960,540)"/>
<path style="fill:none;stroke-width:0.005;stroke-linecap:butt;stroke-linejoin:miter;stroke:rgb(0%,0%,0%);stroke-opacity:1;stroke-miterlimit:10;" d="M -1.505006 1.844444 C -1.505006 1.861111 -1.505006 1.877778 -1.505006 1.894444 " transform="matrix(135,0,0,-135,960,540)"/>
<path style="fill:none;stroke-width:0.005;stroke-linecap:butt;stroke-linejoin:miter;stroke:rgb(0%,0%,0%);stroke-opacity:1;stroke-miterlimit:10;" d="M -1.505006 1.95 C -1.505006 1.966667 -1.505006 1.983333 -1.505006 2 " transform="matrix(135,0,0,-135,960,540)"/>
<path style="fill:none;stroke-width:0.005;stroke-linecap:butt;stroke-linejoin:miter;stroke:rgb(0%,0%,0%);stroke-opacity:1;stroke-miterlimit:10;" d="M -1.505006 1 C -1.505006 0.983333 -1.505006 0.966667 -1.505006 0.95 " transform="matrix(135,0,0,-135,960,540)"/>
<path style="fill:none;stroke-width:0.005;stroke-linecap:butt;stroke-linejoin:miter;stroke:rgb(0%,0%,0%);stroke-opacity:1;stroke-miterlimit:10;" d="M -1.505006 0.898264 C -1.505006 0.881597 -1.505006 0.864931 -1.505006 0.848264 " transform="matrix(135,0,0,-135,960,540)"/>
<path style="fill:none;stroke-width:0.005;stroke-linecap:butt;stroke-linejoin:miter;stroke:rgb(0%,0%,0%);stroke-opacity:1;stroke-miterlimit:10;" d="M -1.505006 0.796557 C -1.505006 0.77989 -1.505006 0.763223 -1.505006 0.746557 " transform="matrix(135,0,0,-135,960,540)"/>
<path style="fill:none;stroke-width:0.005;stroke-linecap:butt;stroke-linejoin:miter;stroke:rgb(0%,0%,0%);stroke-opacity:1;stroke-miterlimit:10;" d="M -1.505006 0.694821 C -1.505006 0.678154 -1.505006 0.661487 -1.505006 0.644821 " transform="matrix(135,0,0,-135,960,540)"/>
<path style="fill:none;stroke-width:0.005;stroke-linecap:butt;stroke-linejoin:miter;stroke:rgb(0%,0%,0%);stroke-opacity:1;stroke-miterlimit:10;" d="M -1.505006 0.593113 C -1.505006 0.576447 -1.505006 0.55978 -1.505006 0.543113 " transform="matrix(135,0,0,-135,960,540)"/>
<path style="fill:none;stroke-width:0.005;stroke-linecap:butt;stroke-linejoin:miter;stroke:rgb(0%,0%,0%);stroke-opacity:1;stroke-miterlimit:10;" d="M -1.505006 0.491377 C -1.505006 0.474711 -1.505006 0.458044 -1.505006 0.441377 " transform="matrix(135,0,0,-135,960,540)"/>
<path style="fill:none;stroke-width:0.005;stroke-linecap:butt;stroke-linejoin:miter;stroke:rgb(0%,0%,0%);stroke-opacity:1;stroke-miterlimit:10;" d="M -1.505006 0.389641 C -1.505006 0.372975 -1.505006 0.356308 -1.505006 0.339641 " transform="matrix(135,0,0,-135,960,540)"/>
<path style="fill:none;stroke-width:0.005;stroke-linecap:butt;stroke-linejoin:miter;stroke:rgb(0%,0%,0%);stroke-opacity:1;stroke-miterlimit:10;" d="M -1.505006 0.287934 C -1.505006 0.271267 -1.505006 0.254601 -1.505006 0.237934 " transform="matrix(135,0,0,-135,960,540)"/>
<path style="fill:none;stroke-width:0.005;stroke-linecap:butt;stroke-linejoin:miter;stroke:rgb(0%,0%,0%);stroke-opacity:1;stroke-miterlimit:10;" d="M -1.505006 0.186198 C -1.505006 0.169531 -1.505006 0.152865 -1.505006 0.136198 " transform="matrix(135,0,0,-135,960,540)"/>
<path style="fill:none;stroke-width:0.005;stroke-linecap:butt;stroke-linejoin:miter;stroke:rgb(0%,0%,0%);stroke-opacity:1;stroke-miterlimit:10;" d="M -1.505006 0.0844907 C -1.505006 0.0678241 -1.505006 0.0511574 -1.505006 0.0344907 " transform="matrix(135,0,0,-135,960,540)"/>
<path style="fill:none;stroke-width:0.005;stroke-linecap:butt;stroke-linejoin:miter;stroke:rgb(0%,0%,0%);stroke-opacity:1;stroke-miterlimit:10;" d="M -1.505006 -0.0172454 C -1.505006 -0.033912 -1.505006 -0.0505787 -1.505006 -0.0672454 " transform="matrix(135,0,0,-135,960,540)"/>
<path style="fill:none;stroke-width:0.005;stroke-linecap:butt;stroke-linejoin:miter;stroke:rgb(0%,0%,0%);stroke-opacity:1;stroke-miterlimit:10;" d="M -1.505006 -0.118953 C -1.505006 -0.135619 -1.505006 -0.152286 -1.505006 -0.168953 " transform="matrix(135,0,0,-135,960,540)"/>
<path style="fill:none;stroke-width:0.005;stroke-linecap:butt;stroke-linejoin:miter;stroke:rgb(0%,0%,0%);stroke-opacity:1;stroke-miterlimit:10;" d="M -1.505006 -0.220689 C -1.505006 -0.237355 -1.505006 -0.254022 -1.505006 -0.270689 " transform="matrix(135,0,0,-135,960,540)"/>
<path style="fill:none;stroke-width:0.005;stroke-linecap:butt;stroke-linejoin:miter;stroke:rgb(0%,0%,0%);stroke-opacity:1;stroke-miterlimit:10;" d="M -1.505006 -0.322425 C -1.505006 -0.339091 -1.505006 -0.355758 -1.505006 -0.372425 " transform="matrix(135,0,0,-135,960,540)"/>
<path style="fill:none;stroke-width:0.005;stroke-linecap:butt;stroke-linejoin:miter;stroke:rgb(0%,0%,0%);stroke-opacity:1;stroke-miterlimit:10;" d="M -1.505006 -0.424132 C -1.505006 -0.440799 -1.505006 -0.457465 -1.505006 -0.474132 " transform="matrix(135,0,0,-135,960,540)"/>
<path style="fill:none;stroke-width:0.005;stroke-linecap:butt;stroke-linejoin:miter;stroke:rgb(0%,0%,0%);stroke-opacity:1;stroke-miterlimit:10;" d="M -1.505006 -0.525868 C -1.505006 -0.542535 -1.505006 -0.559201 -1.505006 -0.575868 " transform="matrix(135,0,0,-135,960,540)"/>
<path style="fill:none;stroke-width:0.005;stroke-linecap:butt;stroke-linejoin:miter;stroke:rgb(0%,0%,0%);stroke-opacity:1;stroke-miterlimit:10;" d="M -1.505006 -0.627575 C -1.505006 -0.644242 -1.505006 -0.660909 -1.505006 -0.677575 " transform="matrix(135,0,0,-135,960,540)"/>
<path style="fill:none;stroke-width:0.005;stroke-linecap:butt;stroke-linejoin:miter;stroke:rgb(0%,0%,0%);stroke-opacity:1;stroke-miterlimit:10;" d="M -1.505006 -0.729311 C -1.505006 -0.745978 -1.505006 -0.762645 -1.505006 -0.779311 " transform="matrix(135,0,0,-135,960,540)"/>
<path style="fill:none;stroke-width:0.005;stroke-linecap:butt;stroke-linejoin:miter;stroke:rgb(0%,0%,0%);stroke-opacity:1;stroke-miterlimit:10;" d="M -1.505006 -0.831047 C -1.505006 -0.847714 -1.505006 -0.864381 -1.505006 -0.881047 " transform="matrix(135,0,0,-135,960,540)"/>
<path style="fill:none;stroke-width:0.005;stroke-linecap:butt;stroke-linejoin:miter;stroke:rgb(0%,0%,0%);stroke-opacity:1;stroke-miterlimit:10;" d="M -1.505006 -0.932755 C -1.505006 -0.949421 -1.505006 -0.966088 -1.505006 -0.982755 " transform="matrix(135,0,0,-135,960,540)"/>
<path style="fill:none;stroke-width:0.005;stroke-linecap:butt;stroke-linejoin:miter;stroke:rgb(0%,0%,0%);stroke-opacity:1;stroke-miterlimit:10;" d="M -1.505006 -1.034491 C -1.505006 -1.051157 -1.505006 -1.067824 -1.505006 -1.084491 " transform="matrix(135,0,0,-135,960,540)"/>
<path style="fill:none;stroke-width:0.005;stroke-linecap:butt;stroke-linejoin:miter;stroke:rgb(0%,0%,0%);stroke-opacity:1;stroke-miterlimit:10;" d="M -1.505006 -1.136198 C -1.505006 -1.152865 -1.505006 -1.169531 -1.505006 -1.186198 " transform="matrix(135,0,0,-135,960,540)"/>
<path style="fill:none;stroke-width:0.005;stroke-linecap:butt;stroke-linejoin:miter;stroke:rgb(0%,0%,0%);stroke-opacity:1;stroke-miterlimit:10;" d="M -1.505006 -1.237934 C -1.505006 -1.254601 -1.505006 -1.271267 -1.505006 -1.287934 " transform="matrix(135,0,0,-135,960,540)"/>
<path style="fill:none;stroke-width:0.005;stroke-linecap:butt;stroke-linejoin:miter;stroke:rgb(0%,0%,0%);stroke-opacity:1;stroke-miterlimit:10;" d="M -1.505006 -1.339641 C -1.505006 -1.356308 -1.505006 -1.372975 -1.505006 -1.389641 " transform="matrix(135,0,0,-135,960,540)"/>
<path style="fill:none;stroke-width:0.005;stroke-linecap:butt;stroke-linejoin:miter;stroke:rgb(0%,0%,0%);stroke-opacity:1;stroke-miterlimit:10;" d="M -1.505006 -1.441377 C -1.505006 -1.458044 -1.505006 -1.474711 -1.505006 -1.491377 " transform="matrix(135,0,0,-135,960,540)"/>
<path style="fill:none;stroke-width:0.005;stroke-linecap:butt;stroke-linejoin:miter;stroke:rgb(0%,0%,0%);stroke-opacity:1;stroke-miterlimit:10;" d="M -1.505006 -1.543113 C -1.505006 -1.55978 -1.505006 -1.576447 -1.505006 -1.593113 " transform="matrix(135,0,0,-135,960,540)"/>
<path style="fill:none;stroke-width:0.005;stroke-linecap:butt;stroke-linejoin:miter;stroke:rgb(0%,0%,0%);stroke-opacity:1;stroke-miterlimit:10;" d="M -1.505006 -1.644821 C -1.505006 -1.661487 -1.505006 -1.678154 -1.505006 -1.694821 " transform="matrix(135,0,0,-135,960,540)"/>
<path style="fill:none;stroke-width:0.005;stroke-linecap:butt;stroke-linejoin:miter;stroke:rgb(0%,0%,0%);stroke-opacity:1;stroke-miterlimit:10;" d="M -1.505006 -1.746557 C -1.505006 -1.763223 -1.505006 -1.77989 -1.505006 -1.796557 " transform="matrix(135,0,0,-135,960,540)"/>
<path style="fill:none;stroke-width:0.005;stroke-linecap:butt;stroke-linejoin:miter;stroke:rgb(0%,0%,0%);stroke-opacity:1;stroke-miterlimit:10;" d="M -1.505006 -1.848264 C -1.505006 -1.864931 -1.505006 -1.881597 -1.505006 -1.898264 " transform="matrix(135,0,0,-135,960,540)"/>
<path style="fill:none;stroke-width:0.005;stroke-linecap:butt;stroke-linejoin:miter;stroke:rgb(0%,0%,0%);stroke-opacity:1;stroke-miterlimit:10;" d="M -1.505006 -1.95 C -1.505006 -1.966667 -1.505006 -1.983333 -1.505006 -2 " transform="matrix(135,0,0,-135,960,540)"/>
<path style="fill:none;stroke-width:0.005;stroke-linecap:butt;stroke-linejoin:miter;stroke:rgb(0%,0%,0%);stroke-opacity:1;stroke-miterlimit:10;" d="M 0.494994 1 C 0.494994 1.016667 0.494994 1.033333 0.494994 1.05 " transform="matrix(135,0,0,-135,960,540)"/>
<path style="fill:none;stroke-width:0.005;stroke-linecap:butt;stroke-linejoin:miter;stroke:rgb(0%,0%,0%);stroke-opacity:1;stroke-miterlimit:10;" d="M 0.494994 1.105556 C 0.494994 1.122222 0.494994 1.138889 0.494994 1.155556 " transform="matrix(135,0,0,-135,960,540)"/>
<path style="fill:none;stroke-width:0.005;stroke-linecap:butt;stroke-linejoin:miter;stroke:rgb(0%,0%,0%);stroke-opacity:1;stroke-miterlimit:10;" d="M 0.494994 1.211111 C 0.494994 1.227778 0.494994 1.244444 0.494994 1.261111 " transform="matrix(135,0,0,-135,960,540)"/>
<path style="fill:none;stroke-width:0.005;stroke-linecap:butt;stroke-linejoin:miter;stroke:rgb(0%,0%,0%);stroke-opacity:1;stroke-miterlimit:10;" d="M 0.494994 1.316667 C 0.494994 1.333333 0.494994 1.35 0.494994 1.366667 " transform="matrix(135,0,0,-135,960,540)"/>
<path style="fill:none;stroke-width:0.005;stroke-linecap:butt;stroke-linejoin:miter;stroke:rgb(0%,0%,0%);stroke-opacity:1;stroke-miterlimit:10;" d="M 0.494994 1.422222 C 0.494994 1.438889 0.494994 1.455556 0.494994 1.472222 " transform="matrix(135,0,0,-135,960,540)"/>
<path style="fill:none;stroke-width:0.005;stroke-linecap:butt;stroke-linejoin:miter;stroke:rgb(0%,0%,0%);stroke-opacity:1;stroke-miterlimit:10;" d="M 0.494994 1.527778 C 0.494994 1.544444 0.494994 1.561111 0.494994 1.577778 " transform="matrix(135,0,0,-135,960,540)"/>
<path style="fill:none;stroke-width:0.005;stroke-linecap:butt;stroke-linejoin:miter;stroke:rgb(0%,0%,0%);stroke-opacity:1;stroke-miterlimit:10;" d="M 0.494994 1.633333 C 0.494994 1.65 0.494994 1.666667 0.494994 1.683333 " transform="matrix(135,0,0,-135,960,540)"/>
<path style="fill:none;stroke-width:0.005;stroke-linecap:butt;stroke-linejoin:miter;stroke:rgb(0%,0%,0%);stroke-opacity:1;stroke-miterlimit:10;" d="M 0.494994 1.738889 C 0.494994 1.755556 0.494994 1.772222 0.494994 1.788889 " transform="matrix(135,0,0,-135,960,540)"/>
<path style="fill:none;stroke-width:0.005;stroke-linecap:butt;stroke-linejoin:miter;stroke:rgb(0%,0%,0%);stroke-opacity:1;stroke-miterlimit:10;" d="M 0.494994 1.844444 C 0.494994 1.861111 0.494994 1.877778 0.494994 1.894444 " transform="matrix(135,0,0,-135,960,540)"/>
<path style="fill:none;stroke-width:0.005;stroke-linecap:butt;stroke-linejoin:miter;stroke:rgb(0%,0%,0%);stroke-opacity:1;stroke-miterlimit:10;" d="M 0.494994 1.95 C 0.494994 1.966667 0.494994 1.983333 0.494994 2 " transform="matrix(135,0,0,-135,960,540)"/>
<path style="fill:none;stroke-width:0.005;stroke-linecap:butt;stroke-linejoin:miter;stroke:rgb(0%,0%,0%);stroke-opacity:1;stroke-miterlimit:10;" d="M 0.494994 1 C 0.494994 0.983333 0.494994 0.966667 0.494994 0.95 " transform="matrix(135,0,0,-135,960,540)"/>
<path style="fill:none;stroke-width:0.005;stroke-linecap:butt;stroke-linejoin:miter;stroke:rgb(0%,0%,0%);stroke-opacity:1;stroke-miterlimit:10;" d="M 0.494994 0.898264 C 0.494994 0.881597 0.494994 0.864931 0.494994 0.848264 " transform="matrix(135,0,0,-135,960,540)"/>
<path style="fill:none;stroke-width:0.005;stroke-linecap:butt;stroke-linejoin:miter;stroke:rgb(0%,0%,0%);stroke-opacity:1;stroke-miterlimit:10;" d="M 0.494994 0.796557 C 0.494994 0.77989 0.494994 0.763223 0.494994 0.746557 " transform="matrix(135,0,0,-135,960,540)"/>
<path style="fill:none;stroke-width:0.005;stroke-linecap:butt;stroke-linejoin:miter;stroke:rgb(0%,0%,0%);stroke-opacity:1;stroke-miterlimit:10;" d="M 0.494994 0.694821 C 0.494994 0.678154 0.494994 0.661487 0.494994 0.644821 " transform="matrix(135,0,0,-135,960,540)"/>
<path style="fill:none;stroke-width:0.005;stroke-linecap:butt;stroke-linejoin:miter;stroke:rgb(0%,0%,0%);stroke-opacity:1;stroke-miterlimit:10;" d="M 0.494994 0.593113 C 0.494994 0.576447 0.494994 0.55978 0.494994 0.543113 " transform="matrix(135,0,0,-135,960,540)"/>
<path style="fill:none;stroke-width:0.005;stroke-linecap:butt;stroke-linejoin:miter;stroke:rgb(0%,0%,0%);stroke-opacity:1;stroke-miterlimit:10;" d="M 0.494994 0.491377 C 0.494994 0.474711 0.494994 0.458044 0.494994 0.441377 " transform="matrix(135,0,0,-135,960,540)"/>
<path style="fill:none;stroke-width:0.005;stroke-linecap:butt;stroke-linejoin:miter;stroke:rgb(0%,0%,0%);stroke-opacity:1;stroke-miterlimit:10;" d="M 0.494994 0.389641 C 0.494994 0.372975 0.494994 0.356308 0.494994 0.339641 " transform="matrix(135,0,0,-135,960,540)"/>
<path style="fill:none;stroke-width:0.005;stroke-linecap:butt;stroke-linejoin:miter;stroke:rgb(0%,0%,0%);stroke-opacity:1;stroke-miterlimit:10;" d="M 0.494994 0.287934 C 0.494994 0.271267 0.494994 0.254601 0.494994 0.237934 " transform="matrix(135,0,0,-135,960,540)"/>
<path style="fill:none;stroke-width:0.005;stroke-linecap:butt;stroke-linejoin:miter;stroke:rgb(0%,0%,0%);stroke-opacity:1;stroke-miterlimit:10;" d="M 0.494994 0.186198 C 0.494994 0.169531 0.494994 0.152865 0.494994 0.136198 " transform="matrix(135,0,0,-135,960,540)"/>
<path style="fill:none;stroke-width:0.005;stroke-linecap:butt;stroke-linejoin:miter;stroke:rgb(0%,0%,0%);stroke-opacity:1;stroke-miterlimit:10;" d="M 0.494994 0.0844907 C 0.494994 0.0678241 0.494994 0.0511574 0.494994 0.0344907 " transform="matrix(135,0,0,-135,960,540)"/>
<path style="fill:none;stroke-width:0.005;stroke-linecap:butt;stroke-linejoin:miter;stroke:rgb(0%,0%,0%);stroke-opacity:1;stroke-miterlimit:10;" d="M 0.494994 -0.0172454 C 0.494994 -0.033912 0.494994 -0.0505787 0.494994 -0.0672454 " transform="matrix(135,0,0,-135,960,540)"/>
<path style="fill:none;stroke-width:0.005;stroke-linecap:butt;stroke-linejoin:miter;stroke:rgb(0%,0%,0%);stroke-opacity:1;stroke-miterlimit:10;" d="M 0.494994 -0.118953 C 0.494994 -0.135619 0.494994 -0.152286 0.494994 -0.168953 " transform="matrix(135,0,0,-135,960,540)"/>
<path style="fill:none;stroke-width:0.005;stroke-linecap:butt;stroke-linejoin:miter;stroke:rgb(0%,0%,0%);stroke-opacity:1;stroke-miterlimit:10;" d="M 0.494994 -0.220689 C 0.494994 -0.237355 0.494994 -0.254022 0.494994 -0.270689 " transform="matrix(135,0,0,-135,960,540)"/>
<path style="fill:none;stroke-width:0.005;stroke-linecap:butt;stroke-linejoin:miter;stroke:rgb(0%,0%,0%);stroke-opacity:1;stroke-miterlimit:10;" d="M 0.494994 -0.322425 C 0.494994 -0.339091 0.494994 -0.355758 0.494994 -0.372425 " transform="matrix(135,0,0,-135,960,540)"/>
<path style="fill:none;stroke-width:0.005;stroke-linecap:butt;stroke-linejoin:miter;stroke:rgb(0%,0%,0%);stroke-opacity:1;stroke-miterlimit:10;" d="M 0.494994 -0.424132 C 0.494994 -0.440799 0.494994 -0.457465 0.494994 -0.474132 " transform="matrix(135,0,0,-135,960,540)"/>
<path style="fill:none;stroke-width:0.005;stroke-linecap:butt;stroke-linejoin:miter;stroke:rgb(0%,0%,0%);stroke-opacity:1;stroke-miterlimit:10;" d="M 0.494994 -0.525868 C 0.494994 -0.542535 0.494994 -0.559201 0.494994 -0.575868 " transform="matrix(135,0,0,-135,960,540)"/>
<path style="fill:none;stroke-width:0.005;stroke-linecap:butt;stroke-linejoin:miter;stroke:rgb(0%,0%,0%);stroke-opacity:1;stroke-miterlimit:10;" d="M 0.494994 -0.627575 C 0.494994 -0.644242 0.494994 -0.660909 0.494994 -0.677575 " transform="matrix(135,0,0,-135,960,540)"/>
<path style="fill:none;stroke-width:0.005;stroke-linecap:butt;stroke-linejoin:miter;stroke:rgb(0%,0%,0%);stroke-opacity:1;stroke-miterlimit:10;" d="M 0.494994 -0.729311 C 0.494994 -0.745978 0.494994 -0.762645 0.494994 -0.779311 " transform="matrix(135,0,0,-135,960,540)"/>
<path style="fill:none;stroke-width:0.005;stroke-linecap:butt;stroke-linejoin:miter;stroke:rgb(0%,0%,0%);stroke-opacity:1;stroke-miterlimit:10;" d="M 0.494994 -0.831047 C 0.494994 -0.847714 0.494994 -0.864381 0.494994 -0.881047 " transform="matrix(135,0,0,-135,960,540)"/>
<path style="fill:none;stroke-width:0.005;stroke-linecap:butt;stroke-linejoin:miter;stroke:rgb(0%,0%,0%);stroke-opacity:1;stroke-miterlimit:10;" d="M 0.494994 -0.932755 C 0.494994 -0.949421 0.494994 -0.966088 0.494994 -0.982755 " transform="matrix(135,0,0,-135,960,540)"/>
<path style="fill:none;stroke-width:0.005;stroke-linecap:butt;stroke-linejoin:miter;stroke:rgb(0%,0%,0%);stroke-opacity:1;stroke-miterlimit:10;" d="M 0.494994 -1.034491 C 0.494994 -1.051157 0.494994 -1.067824 0.494994 -1.084491 " transform="matrix(135,0,0,-135,960,540)"/>
<path style="fill:none;stroke-width:0.005;stroke-linecap:butt;stroke-linejoin:miter;stroke:rgb(0%,0%,0%);stroke-opacity:1;stroke-miterlimit:10;" d="M 0.494994 -1.136198 C 0.494994 -1.152865 0.494994 -1.169531 0.494994 -1.186198 " transform="matrix(135,0,0,-135,960,540)"/>
<path style="fill:none;stroke-width:0.005;stroke-linecap:butt;stroke-linejoin:miter;stroke:rgb(0%,0%,0%);stroke-opacity:1;stroke-miterlimit:10;" d="M 0.494994 -1.237934 C 0.494994 -1.254601 0.494994 -1.271267 0.494994 -1.287934 " transform="matrix(135,0,0,-135,960,540)"/>
<path style="fill:none;stroke-width:0.005;stroke-linecap:butt;stroke-linejoin:miter;stroke:rgb(0%,0%,0%);stroke-opacity:1;stroke-miterlimit:10;" d="M 0.494994 -1.339641 C 0.494994 -1.356308 0.494994 -1.372975 0.494994 -1.389641 " transform="matrix(135,0,0,-135,960,540)"/>
<path style="fill:none;stroke-width:0.005;stroke-linecap:butt;stroke-linejoin:miter;stroke:rgb(0%,0%,0%);stroke-opacity:1;stroke-miterlimit:10;" d="M 0.494994 -1.441377 C 0.494994 -1.458044 0.494994 -1.474711 0.494994 -1.491377 " transform="matrix(135,0,0,-135,960,540)"/>
<path style="fill:none;stroke-width:0.005;stroke-linecap:butt;stroke-linejoin:miter;stroke:rgb(0%,0%,0%);stroke-opacity:1;stroke-miterlimit:10;" d="M 0.494994 -1.543113 C 0.494994 -1.55978 0.494994 -1.576447 0.494994 -1.593113 " transform="matrix(135,0,0,-135,960,540)"/>
<path style="fill:none;stroke-width:0.005;stroke-linecap:butt;stroke-linejoin:miter;stroke:rgb(0%,0%,0%);stroke-opacity:1;stroke-miterlimit:10;" d="M 0.494994 -1.644821 C 0.494994 -1.661487 0.494994 -1.678154 0.494994 -1.694821 " transform="matrix(135,0,0,-135,960,540)"/>
<path style="fill:none;stroke-width:0.005;stroke-linecap:butt;stroke-linejoin:miter;stroke:rgb(0%,0%,0%);stroke-opacity:1;stroke-miterlimit:10;" d="M 0.494994 -1.746557 C 0.494994 -1.763223 0.494994 -1.77989 0.494994 -1.796557 " transform="matrix(135,0,0,-135,960,540)"/>
<path style="fill:none;stroke-width:0.005;stroke-linecap:butt;stroke-linejoin:miter;stroke:rgb(0%,0%,0%);stroke-opacity:1;stroke-miterlimit:10;" d="M 0.494994 -1.848264 C 0.494994 -1.864931 0.494994 -1.881597 0.494994 -1.898264 " transform="matrix(135,0,0,-135,960,540)"/>
<path style="fill:none;stroke-width:0.005;stroke-linecap:butt;stroke-linejoin:miter;stroke:rgb(0%,0%,0%);stroke-opacity:1;stroke-miterlimit:10;" d="M 0.494994 -1.95 C 0.494994 -1.966667 0.494994 -1.983333 0.494994 -2 " transform="matrix(135,0,0,-135,960,540)"/>
<path style=" stroke:none;fill-rule:nonzero;fill:rgb(81.176471%,31.372549%,26.666667%);fill-opacity:1;" d="M 680.960938 347.714844 C 679.28125 350.527344 677.640625 351.117188 675.792969 351.242188 C 675.285156 351.285156 674.910156 351.285156 674.910156 352.085938 C 674.910156 352.335938 675.117188 352.546875 675.457031 352.546875 C 676.589844 352.546875 677.894531 352.421875 679.070312 352.421875 C 680.457031 352.421875 681.929688 352.546875 683.273438 352.546875 C 683.523438 352.546875 684.070312 352.546875 684.070312 351.75 C 684.070312 351.285156 683.691406 351.242188 683.398438 351.242188 C 682.433594 351.160156 681.421875 350.824219 681.421875 349.773438 C 681.421875 349.269531 681.675781 348.804688 682.011719 348.21875 C 683.078125 346.425781 684.140625 344.632812 685.207031 342.835938 C 688.722656 342.835938 692.238281 342.835938 695.753906 342.835938 C 695.839844 343.71875 696.429688 349.4375 696.429688 349.855469 C 696.429688 351.117188 694.242188 351.242188 693.402344 351.242188 C 692.8125 351.242188 692.394531 351.242188 692.394531 352.085938 C 692.394531 352.546875 692.898438 352.546875 692.980469 352.546875 C 694.703125 352.546875 696.511719 352.421875 698.234375 352.421875 C 699.285156 352.421875 701.933594 352.546875 702.984375 352.546875 C 703.238281 352.546875 703.742188 352.546875 703.742188 351.707031 C 703.742188 351.242188 703.320312 351.242188 702.773438 351.242188 C 700.167969 351.242188 700.167969 350.949219 700.042969 349.730469 C 699.1875 340.972656 698.332031 332.21875 697.480469 323.460938 C 697.394531 322.621094 697.394531 322.453125 696.679688 322.453125 C 696.007812 322.453125 695.839844 322.746094 695.585938 323.167969 C 690.710938 331.351562 685.835938 339.53125 680.960938 347.714844 Z M 686.003906 341.535156 C 688.765625 336.910156 691.523438 332.289062 694.285156 327.664062 C 694.734375 332.289062 695.179688 336.910156 695.628906 341.535156 C 692.421875 341.535156 689.214844 341.535156 686.003906 341.535156 Z M 686.003906 341.535156 "/>
<path style=" stroke:none;fill-rule:nonzero;fill:rgb(41.176471%,61.176471%,32.156863%);fill-opacity:1;" d="M 881.78125 348.574219 C 881.359375 350.214844 881.277344 350.550781 877.957031 350.550781 C 877.242188 350.550781 876.820312 350.550781 876.820312 351.390625 C 876.820312 351.851562 877.199219 351.851562 877.957031 351.851562 C 882.957031 351.851562 887.957031 351.851562 892.960938 351.851562 C 899.601562 351.851562 904.558594 346.894531 904.558594 342.773438 C 904.558594 339.75 902.121094 337.3125 898.046875 336.847656 C 902.417969 336.050781 906.828125 332.941406 906.828125 328.945312 C 906.828125 325.835938 904.054688 323.148438 899.011719 323.148438 C 894.304688 323.148438 889.597656 323.148438 884.890625 323.148438 C 884.089844 323.148438 883.671875 323.148438 883.671875 323.988281 C 883.671875 324.449219 884.050781 324.449219 884.847656 324.449219 C 884.933594 324.449219 885.730469 324.449219 886.445312 324.535156 C 887.203125 324.617188 887.578125 324.660156 887.578125 325.207031 C 887.578125 325.375 887.539062 325.5 887.410156 326.003906 C 885.535156 333.527344 883.65625 341.050781 881.78125 348.574219 Z M 888.125 336.46875 C 888.996094 332.996094 889.863281 329.519531 890.730469 326.046875 C 891.109375 324.574219 891.195312 324.449219 893 324.449219 C 894.808594 324.449219 896.617188 324.449219 898.421875 324.449219 C 902.121094 324.449219 903.003906 326.929688 903.003906 328.777344 C 903.003906 332.476562 899.390625 336.46875 894.261719 336.46875 C 892.21875 336.46875 890.171875 336.46875 888.125 336.46875 Z M 886.234375 350.550781 C 885.648438 350.550781 885.5625 350.550781 885.308594 350.507812 C 884.890625 350.464844 884.765625 350.425781 884.765625 350.089844 C 884.765625 349.960938 884.765625 349.878906 884.972656 349.121094 C 885.941406 345.210938 886.90625 341.304688 887.875 337.394531 C 890.523438 337.394531 893.171875 337.394531 895.816406 337.394531 C 899.851562 337.394531 900.652344 340.503906 900.652344 342.3125 C 900.652344 346.472656 896.910156 350.550781 891.949219 350.550781 C 890.046875 350.550781 888.140625 350.550781 886.234375 350.550781 Z M 886.234375 350.550781 "/>
<path style=" stroke:none;fill-rule:nonzero;fill:rgb(0%,0%,0%);fill-opacity:1;" d="M 1176.746094 322.640625 C 1176.746094 322.515625 1176.660156 322.222656 1176.285156 322.222656 C 1176.15625 322.222656 1176.113281 322.265625 1175.652344 322.726562 C 1174.671875 323.804688 1173.691406 324.882812 1172.710938 325.960938 C 1172.332031 325.375 1170.398438 322.222656 1165.734375 322.222656 C 1156.359375 322.222656 1146.90625 331.511719 1146.90625 341.261719 C 1146.90625 348.195312 1151.863281 352.777344 1158.292969 352.777344 C 1161.949219 352.777344 1165.144531 351.097656 1167.371094 349.164062 C 1171.28125 345.71875 1171.996094 341.890625 1171.996094 341.765625 C 1171.996094 341.347656 1171.574219 341.347656 1171.492188 341.347656 C 1171.238281 341.347656 1171.03125 341.429688 1170.945312 341.765625 C 1170.566406 342.984375 1169.601562 345.96875 1166.699219 348.40625 C 1163.800781 350.761719 1161.152344 351.476562 1158.96875 351.476562 C 1155.183594 351.476562 1150.730469 349.289062 1150.730469 342.734375 C 1150.730469 340.335938 1151.613281 333.527344 1155.816406 328.609375 C 1158.378906 325.625 1162.328125 323.523438 1166.070312 323.523438 C 1170.355469 323.523438 1172.835938 326.761719 1172.835938 331.636719 C 1172.835938 333.316406 1172.710938 333.359375 1172.710938 333.78125 C 1172.710938 334.199219 1173.171875 334.199219 1173.339844 334.199219 C 1173.886719 334.199219 1173.886719 334.117188 1174.097656 333.359375 C 1174.980469 329.789062 1175.863281 326.214844 1176.746094 322.640625 Z M 1176.746094 322.640625 "/>
</g>
</svg>
