<?xml version="1.0" encoding="UTF-8"?>
<svg xmlns="http://www.w3.org/2000/svg" xmlns:xlink="http://www.w3.org/1999/xlink" width="1920pt" height="1080pt" viewBox="0 0 1920 1080" version="1.1">
<g id="surface1">
<path style="fill:none;stroke-width:0.005;stroke-linecap:butt;stroke-linejoin:miter;stroke:rgb(0%,0%,0%);stroke-opacity:1;stroke-miterlimit:10;" d="M -1.414207 -1.414207 C -0.471412 -0.471412 0.471412 0.471412 1.414207 1.414207 " transform="matrix(135,0,0,-135,960,540)"/>
<path style="fill:none;stroke-width:0.005;stroke-linecap:butt;stroke-linejoin:miter;stroke:rgb(0%,0%,0%);stroke-opacity:1;stroke-miterlimit:10;" d="M 1.414207 -1.414207 C 0.471412 -0.471412 -0.471412 0.471412 -1.414207 1.414207 " transform="matrix(135,0,0,-135,960,540)"/>
<path style=" stroke:none;fill-rule:nonzero;fill:rgb(41.176471%,61.176471%,32.156863%);fill-opacity:1;" d="M 965.398438 540 C 965.398438 538.585938 964.816406 537.179688 963.820312 536.179688 C 962.820312 535.183594 961.414062 534.601562 960 534.601562 C 958.585938 534.601562 957.179688 535.183594 956.179688 536.179688 C 955.183594 537.179688 954.601562 538.585938 954.601562 540 C 954.601562 541.414062 955.183594 542.820312 956.179688 543.820312 C 957.179688 544.816406 958.585938 545.398438 960 545.398438 C 961.414062 545.398438 962.820312 544.816406 963.820312 543.820312 C 964.816406 542.820312 965.398438 541.414062 965.398438 540 Z M 965.398438 540 "/>
<path style=" stroke:none;fill-rule:nonzero;fill:rgb(13.72549%,41.960784%,55.686275%);fill-opacity:1;" d="M 1127.398438 479.25 C 1127.398438 477.835938 1126.816406 476.429688 1125.820312 475.429688 C 1124.820312 474.433594 1123.414062 473.851562 1122 473.851562 C 1120.585938 473.851562 1119.179688 474.433594 1118.179688 475.429688 C 1117.183594 476.429688 1116.601562 477.835938 1116.601562 479.25 C 1116.601562 480.664062 1117.183594 482.070312 1118.179688 483.070312 C 1119.179688 484.066406 1120.585938 484.648438 1122 484.648438 C 1123.414062 484.648438 1124.820312 484.066406 1125.820312 483.070312 C 1126.816406 482.070312 1127.398438 480.664062 1127.398438 479.25 Z M 1127.398438 479.25 "/>
<path style=" stroke:none;fill-rule:nonzero;fill:rgb(41.176471%,61.176471%,32.156863%);fill-opacity:1;" d="M 855.039062 547.1875 C 855.039062 548.195312 854.980469 548.503906 852.824219 548.503906 C 852.597656 548.503906 852.375 548.503906 852.152344 548.503906 C 852.152344 548.792969 852.152344 549.082031 852.152344 549.371094 C 857.539062 549.371094 862.929688 549.371094 868.320312 549.371094 C 868.710938 546.964844 869.101562 544.554688 869.496094 542.144531 C 869.261719 542.144531 869.027344 542.144531 868.796875 542.144531 C 868.09375 546.457031 867.449219 548.503906 862.628906 548.503906 C 861.386719 548.503906 860.144531 548.503906 858.902344 548.503906 C 857.585938 548.503906 857.53125 548.308594 857.53125 547.382812 C 857.53125 544.890625 857.53125 542.394531 857.53125 539.902344 C 858.371094 539.902344 859.210938 539.902344 860.054688 539.902344 C 862.769531 539.902344 863.078125 540.796875 863.078125 543.179688 C 863.3125 543.179688 863.546875 543.179688 863.78125 543.179688 C 863.78125 540.707031 863.78125 538.230469 863.78125 535.753906 C 863.546875 535.753906 863.3125 535.753906 863.078125 535.753906 C 863.078125 538.164062 862.769531 539.035156 860.054688 539.035156 C 859.210938 539.035156 858.371094 539.035156 857.53125 539.035156 C 857.53125 536.792969 857.53125 534.550781 857.53125 532.308594 C 857.53125 531.382812 857.585938 531.1875 858.902344 531.1875 C 860.109375 531.1875 861.3125 531.1875 862.519531 531.1875 C 866.804688 531.1875 867.5625 532.730469 868.011719 536.625 C 868.242188 536.625 868.476562 536.625 868.710938 536.625 C 868.449219 534.523438 868.1875 532.421875 867.925781 530.320312 C 862.667969 530.320312 857.410156 530.320312 852.152344 530.320312 C 852.152344 530.609375 852.152344 530.898438 852.152344 531.1875 C 852.375 531.1875 852.597656 531.1875 852.824219 531.1875 C 854.980469 531.1875 855.039062 531.496094 855.039062 532.503906 C 855.039062 537.398438 855.039062 542.292969 855.039062 547.1875 Z M 855.039062 547.1875 "/>
<path style=" stroke:none;fill-rule:nonzero;fill:rgb(41.176471%,61.176471%,32.156863%);fill-opacity:1;" d="M 881.953125 540.042969 C 882.203125 539.398438 882.679688 538.191406 884.53125 538.164062 C 884.53125 537.875 884.53125 537.585938 884.53125 537.296875 C 883.886719 537.351562 883.074219 537.378906 882.429688 537.378906 C 881.757812 537.378906 880.46875 537.324219 879.992188 537.296875 C 879.992188 537.585938 879.992188 537.875 879.992188 538.164062 C 881.027344 538.191406 881.335938 538.835938 881.335938 539.371094 C 881.335938 539.621094 881.28125 539.734375 881.167969 540.042969 C 880.214844 542.421875 879.261719 544.804688 878.308594 547.1875 C 877.261719 544.582031 876.21875 541.976562 875.171875 539.371094 C 875.003906 539.003906 875.003906 538.949219 875.003906 538.894531 C 875.003906 538.164062 876.097656 538.164062 876.601562 538.164062 C 876.601562 537.875 876.601562 537.585938 876.601562 537.296875 C 875.757812 537.324219 874.191406 537.378906 873.546875 537.378906 C 872.789062 537.378906 871.667969 537.351562 870.828125 537.296875 C 870.828125 537.585938 870.828125 537.875 870.828125 538.164062 C 872.59375 538.164062 872.707031 538.332031 873.070312 539.203125 C 874.414062 542.515625 875.757812 545.832031 877.105469 549.148438 C 877.273438 549.539062 877.328125 549.679688 877.691406 549.679688 C 878.058594 549.679688 878.167969 549.429688 878.28125 549.148438 C 879.503906 546.113281 880.726562 543.078125 881.953125 540.042969 Z M 881.953125 540.042969 "/>
<path style=" stroke:none;fill-rule:nonzero;fill:rgb(41.176471%,61.176471%,32.156863%);fill-opacity:1;" d="M 887.445312 542.3125 C 887.613281 538.136719 889.964844 537.4375 890.917969 537.4375 C 893.804688 537.4375 894.085938 541.21875 894.085938 542.3125 C 891.871094 542.3125 889.65625 542.3125 887.445312 542.3125 Z M 887.414062 542.898438 C 890.023438 542.898438 892.628906 542.898438 895.234375 542.898438 C 895.851562 542.898438 895.933594 542.898438 895.933594 542.3125 C 895.933594 539.539062 894.421875 536.820312 890.917969 536.820312 C 887.667969 536.820312 885.089844 539.707031 885.089844 543.207031 C 885.089844 546.964844 888.03125 549.679688 891.253906 549.679688 C 894.671875 549.679688 895.933594 546.570312 895.933594 546.039062 C 895.933594 545.757812 895.710938 545.703125 895.570312 545.703125 C 895.316406 545.703125 895.261719 545.871094 895.207031 546.09375 C 894.226562 548.980469 891.703125 548.980469 891.421875 548.980469 C 890.023438 548.980469 888.902344 548.140625 888.257812 547.101562 C 887.414062 545.757812 887.414062 543.910156 887.414062 542.898438 Z M 887.414062 542.898438 "/>
<path style=" stroke:none;fill-rule:nonzero;fill:rgb(41.176471%,61.176471%,32.156863%);fill-opacity:1;" d="M 899.839844 539.734375 C 899.839844 542.238281 899.839844 544.738281 899.839844 547.242188 C 899.839844 548.503906 899.53125 548.503906 897.65625 548.503906 C 897.65625 548.792969 897.65625 549.082031 897.65625 549.371094 C 898.636719 549.34375 900.066406 549.289062 900.820312 549.289062 C 901.550781 549.289062 903.007812 549.34375 903.960938 549.371094 C 903.960938 549.082031 903.960938 548.792969 903.960938 548.503906 C 902.082031 548.503906 901.773438 548.503906 901.773438 547.242188 C 901.773438 545.523438 901.773438 543.804688 901.773438 542.085938 C 901.773438 539.171875 903.765625 537.605469 905.558594 537.605469 C 907.324219 537.605469 907.628906 539.117188 907.628906 540.714844 C 907.628906 542.890625 907.628906 545.066406 907.628906 547.242188 C 907.628906 548.503906 907.324219 548.503906 905.445312 548.503906 C 905.445312 548.792969 905.445312 549.082031 905.445312 549.371094 C 906.425781 549.34375 907.855469 549.289062 908.613281 549.289062 C 909.339844 549.289062 910.796875 549.34375 911.75 549.371094 C 911.75 549.082031 911.75 548.792969 911.75 548.503906 C 910.292969 548.503906 909.59375 548.503906 909.5625 547.664062 C 909.5625 545.878906 909.5625 544.09375 909.5625 542.3125 C 909.5625 539.902344 909.5625 539.035156 908.695312 538.023438 C 908.304688 537.546875 907.378906 536.988281 905.753906 536.988281 C 903.707031 536.988281 902.390625 538.191406 901.605469 539.929688 C 901.605469 538.949219 901.605469 537.96875 901.605469 536.988281 C 900.289062 537.089844 898.972656 537.191406 897.65625 537.296875 C 897.65625 537.585938 897.65625 537.875 897.65625 538.164062 C 899.617188 538.164062 899.839844 538.359375 899.839844 539.734375 Z M 899.839844 539.734375 "/>
<path style=" stroke:none;fill-rule:nonzero;fill:rgb(41.176471%,61.176471%,32.156863%);fill-opacity:1;" d="M 916.394531 538.164062 C 917.730469 538.164062 919.066406 538.164062 920.402344 538.164062 C 920.402344 537.875 920.402344 537.585938 920.402344 537.296875 C 919.066406 537.296875 917.730469 537.296875 916.394531 537.296875 C 916.394531 535.578125 916.394531 533.859375 916.394531 532.140625 C 916.160156 532.140625 915.929688 532.140625 915.695312 532.140625 C 915.667969 534.4375 914.824219 537.4375 912.078125 537.546875 C 912.078125 537.753906 912.078125 537.960938 912.078125 538.164062 C 912.875 538.164062 913.667969 538.164062 914.460938 538.164062 C 914.460938 540.742188 914.460938 543.320312 914.460938 545.898438 C 914.460938 549.34375 917.066406 549.679688 918.074219 549.679688 C 920.066406 549.679688 920.851562 547.691406 920.851562 545.898438 C 920.851562 545.367188 920.851562 544.832031 920.851562 544.300781 C 920.617188 544.300781 920.382812 544.300781 920.148438 544.300781 C 920.148438 544.816406 920.148438 545.328125 920.148438 545.84375 C 920.148438 547.914062 919.308594 548.980469 918.273438 548.980469 C 916.394531 548.980469 916.394531 546.429688 916.394531 545.953125 C 916.394531 543.359375 916.394531 540.761719 916.394531 538.164062 Z M 916.394531 538.164062 "/>
<path style=" stroke:none;fill-rule:nonzero;fill:rgb(41.176471%,61.176471%,32.156863%);fill-opacity:1;" d="M 957.128906 589.433594 C 958.707031 589.433594 960.285156 589.433594 961.863281 589.433594 C 965.226562 589.433594 968.25 587.164062 968.25 584.363281 C 968.25 581.617188 965.476562 579.148438 961.640625 579.148438 C 958.34375 579.148438 955.046875 579.148438 951.75 579.148438 C 951.75 579.441406 951.75 579.730469 951.75 580.019531 C 951.972656 580.019531 952.195312 580.019531 952.421875 580.019531 C 954.578125 580.019531 954.632812 580.328125 954.632812 581.335938 C 954.632812 586.257812 954.632812 591.179688 954.632812 596.101562 C 954.632812 597.109375 954.578125 597.417969 952.421875 597.417969 C 952.195312 597.417969 951.972656 597.417969 951.75 597.417969 C 951.75 597.707031 951.75 598 951.75 598.289062 C 952.730469 598.203125 954.800781 598.203125 955.867188 598.203125 C 956.933594 598.203125 959.035156 598.203125 960.015625 598.289062 C 960.015625 598 960.015625 597.707031 960.015625 597.417969 C 959.789062 597.417969 959.566406 597.417969 959.339844 597.417969 C 957.183594 597.417969 957.128906 597.109375 957.128906 596.101562 C 957.128906 593.878906 957.128906 591.65625 957.128906 589.433594 Z M 957.042969 588.703125 C 957.042969 586.183594 957.042969 583.660156 957.042969 581.140625 C 957.042969 580.214844 957.101562 580.019531 958.417969 580.019531 C 959.25 580.019531 960.078125 580.019531 960.910156 580.019531 C 965.367188 580.019531 965.367188 582.988281 965.367188 584.363281 C 965.367188 585.679688 965.367188 588.703125 960.910156 588.703125 C 959.621094 588.703125 958.332031 588.703125 957.042969 588.703125 Z M 957.042969 588.703125 "/>
<path style=" stroke:none;fill-rule:nonzero;fill:rgb(81.176471%,31.372549%,26.666667%);fill-opacity:1;" d="M 862.582031 379.4375 C 857.453125 379.4375 852.328125 379.4375 847.199219 379.4375 C 847.199219 379.726562 847.199219 380.015625 847.199219 380.304688 C 847.421875 380.304688 847.648438 380.304688 847.871094 380.304688 C 850.027344 380.304688 850.085938 380.613281 850.085938 381.621094 C 850.085938 386.515625 850.085938 391.410156 850.085938 396.304688 C 850.085938 397.3125 850.027344 397.621094 847.871094 397.621094 C 847.648438 397.621094 847.421875 397.621094 847.199219 397.621094 C 847.199219 397.910156 847.199219 398.203125 847.199219 398.492188 C 848.179688 398.40625 850.367188 398.40625 851.457031 398.40625 C 852.605469 398.40625 855.15625 398.40625 856.164062 398.492188 C 856.164062 398.203125 856.164062 397.910156 856.164062 397.621094 C 855.859375 397.621094 855.550781 397.621094 855.242188 397.621094 C 852.578125 397.621094 852.578125 397.257812 852.578125 396.277344 C 852.578125 393.980469 852.578125 391.683594 852.578125 389.382812 C 853.382812 389.382812 854.1875 389.382812 854.988281 389.382812 C 857.679688 389.382812 857.957031 390.28125 857.957031 392.664062 C 858.191406 392.664062 858.425781 392.664062 858.660156 392.664062 C 858.660156 390.1875 858.660156 387.710938 858.660156 385.238281 C 858.425781 385.238281 858.191406 385.238281 857.957031 385.238281 C 857.957031 387.589844 857.679688 388.515625 854.988281 388.515625 C 854.1875 388.515625 853.382812 388.515625 852.578125 388.515625 C 852.578125 386.152344 852.578125 383.789062 852.578125 381.425781 C 852.578125 380.503906 852.636719 380.304688 853.953125 380.304688 C 855.074219 380.304688 856.195312 380.304688 857.316406 380.304688 C 861.515625 380.304688 862.21875 381.875 862.667969 385.742188 C 862.898438 385.742188 863.132812 385.742188 863.367188 385.742188 C 863.105469 383.640625 862.84375 381.539062 862.582031 379.4375 Z M 862.582031 379.4375 "/>
<path style=" stroke:none;fill-rule:nonzero;fill:rgb(81.176471%,31.372549%,26.666667%);fill-opacity:1;" d="M 873.1875 396.277344 C 873.1875 397.117188 873.1875 397.957031 873.1875 398.800781 C 874.53125 398.695312 875.875 398.59375 877.222656 398.492188 C 877.222656 398.203125 877.222656 397.910156 877.222656 397.621094 C 875.257812 397.621094 875.035156 397.425781 875.035156 396.054688 C 875.035156 392.738281 875.035156 389.421875 875.035156 386.105469 C 873.664062 386.207031 872.289062 386.3125 870.917969 386.414062 C 870.917969 386.703125 870.917969 386.992188 870.917969 387.28125 C 872.878906 387.28125 873.101562 387.480469 873.101562 388.851562 C 873.101562 390.515625 873.101562 392.175781 873.101562 393.839844 C 873.101562 396.277344 871.757812 398.183594 869.710938 398.183594 C 867.359375 398.183594 867.246094 396.867188 867.246094 395.410156 C 867.246094 392.308594 867.246094 389.207031 867.246094 386.105469 C 865.871094 386.207031 864.5 386.3125 863.128906 386.414062 C 863.128906 386.703125 863.128906 386.992188 863.128906 387.28125 C 865.3125 387.28125 865.3125 387.367188 865.3125 389.859375 C 865.3125 391.261719 865.3125 392.664062 865.3125 394.0625 C 865.3125 396.25 865.3125 398.800781 869.570312 398.800781 C 871.140625 398.800781 872.375 398.015625 873.1875 396.277344 Z M 873.1875 396.277344 "/>
<path style=" stroke:none;fill-rule:nonzero;fill:rgb(81.176471%,31.372549%,26.666667%);fill-opacity:1;" d="M 882.644531 387.28125 C 883.980469 387.28125 885.316406 387.28125 886.652344 387.28125 C 886.652344 386.992188 886.652344 386.703125 886.652344 386.414062 C 885.316406 386.414062 883.980469 386.414062 882.644531 386.414062 C 882.644531 384.695312 882.644531 382.976562 882.644531 381.257812 C 882.410156 381.257812 882.175781 381.257812 881.945312 381.257812 C 881.917969 383.554688 881.074219 386.554688 878.328125 386.667969 C 878.328125 386.871094 878.328125 387.078125 878.328125 387.28125 C 879.125 387.28125 879.917969 387.28125 880.710938 387.28125 C 880.710938 389.859375 880.710938 392.4375 880.710938 395.015625 C 880.710938 398.464844 883.316406 398.800781 884.324219 398.800781 C 886.316406 398.800781 887.101562 396.808594 887.101562 395.015625 C 887.101562 394.484375 887.101562 393.953125 887.101562 393.417969 C 886.867188 393.417969 886.632812 393.417969 886.398438 393.417969 C 886.398438 393.933594 886.398438 394.445312 886.398438 394.960938 C 886.398438 397.035156 885.558594 398.097656 884.523438 398.097656 C 882.644531 398.097656 882.644531 395.550781 882.644531 395.074219 C 882.644531 392.476562 882.644531 389.878906 882.644531 387.28125 Z M 882.644531 387.28125 "/>
<path style=" stroke:none;fill-rule:nonzero;fill:rgb(81.176471%,31.372549%,26.666667%);fill-opacity:1;" d="M 899.648438 396.277344 C 899.648438 397.117188 899.648438 397.957031 899.648438 398.800781 C 900.996094 398.695312 902.339844 398.59375 903.683594 398.492188 C 903.683594 398.203125 903.683594 397.910156 903.683594 397.621094 C 901.722656 397.621094 901.5 397.425781 901.5 396.054688 C 901.5 392.738281 901.5 389.421875 901.5 386.105469 C 900.125 386.207031 898.753906 386.3125 897.378906 386.414062 C 897.378906 386.703125 897.378906 386.992188 897.378906 387.28125 C 899.339844 387.28125 899.566406 387.480469 899.566406 388.851562 C 899.566406 390.515625 899.566406 392.175781 899.566406 393.839844 C 899.566406 396.277344 898.21875 398.183594 896.175781 398.183594 C 893.820312 398.183594 893.710938 396.867188 893.710938 395.410156 C 893.710938 392.308594 893.710938 389.207031 893.710938 386.105469 C 892.335938 386.207031 890.964844 386.3125 889.589844 386.414062 C 889.589844 386.703125 889.589844 386.992188 889.589844 387.28125 C 891.777344 387.28125 891.777344 387.367188 891.777344 389.859375 C 891.777344 391.261719 891.777344 392.664062 891.777344 394.0625 C 891.777344 396.25 891.777344 398.800781 896.035156 398.800781 C 897.605469 398.800781 898.835938 398.015625 899.648438 396.277344 Z M 899.648438 396.277344 "/>
<path style=" stroke:none;fill-rule:nonzero;fill:rgb(81.176471%,31.372549%,26.666667%);fill-opacity:1;" d="M 908.941406 389.1875 C 908.941406 388.160156 908.941406 387.132812 908.941406 386.105469 C 907.640625 386.207031 906.34375 386.3125 905.046875 386.414062 C 905.046875 386.703125 905.046875 386.992188 905.046875 387.28125 C 907.007812 387.28125 907.230469 387.480469 907.230469 388.851562 C 907.230469 391.355469 907.230469 393.859375 907.230469 396.363281 C 907.230469 397.621094 906.921875 397.621094 905.046875 397.621094 C 905.046875 397.910156 905.046875 398.203125 905.046875 398.492188 C 906.136719 398.464844 907.453125 398.40625 908.238281 398.40625 C 909.359375 398.40625 910.675781 398.40625 911.796875 398.492188 C 911.796875 398.203125 911.796875 397.910156 911.796875 397.621094 C 911.601562 397.621094 911.40625 397.621094 911.210938 397.621094 C 909.136719 397.621094 909.078125 397.3125 909.078125 396.304688 C 909.078125 394.867188 909.078125 393.429688 909.078125 391.992188 C 909.078125 389.214844 910.257812 386.722656 912.386719 386.722656 C 912.582031 386.722656 912.636719 386.722656 912.695312 386.75 C 912.609375 386.777344 912.050781 387.113281 912.050781 387.84375 C 912.050781 388.628906 912.636719 389.046875 913.253906 389.046875 C 913.757812 389.046875 914.460938 388.710938 914.460938 387.816406 C 914.460938 386.917969 913.589844 386.105469 912.386719 386.105469 C 910.339844 386.105469 909.332031 387.984375 908.941406 389.1875 Z M 908.941406 389.1875 "/>
<path style=" stroke:none;fill-rule:nonzero;fill:rgb(81.176471%,31.372549%,26.666667%);fill-opacity:1;" d="M 918.375 391.429688 C 918.542969 387.253906 920.894531 386.554688 921.847656 386.554688 C 924.734375 386.554688 925.015625 390.335938 925.015625 391.429688 C 922.800781 391.429688 920.585938 391.429688 918.375 391.429688 Z M 918.34375 392.019531 C 920.949219 392.019531 923.558594 392.019531 926.164062 392.019531 C 926.777344 392.019531 926.863281 392.019531 926.863281 391.429688 C 926.863281 388.65625 925.351562 385.9375 921.847656 385.9375 C 918.597656 385.9375 916.019531 388.824219 916.019531 392.328125 C 916.019531 396.082031 918.960938 398.800781 922.183594 398.800781 C 925.601562 398.800781 926.863281 395.6875 926.863281 395.15625 C 926.863281 394.875 926.640625 394.820312 926.5 394.820312 C 926.246094 394.820312 926.191406 394.988281 926.132812 395.210938 C 925.152344 398.097656 922.632812 398.097656 922.351562 398.097656 C 920.949219 398.097656 919.832031 397.257812 919.1875 396.222656 C 918.34375 394.875 918.34375 393.027344 918.34375 392.019531 Z M 918.34375 392.019531 "/>
<path style=" stroke:none;fill-rule:nonzero;fill:rgb(81.176471%,31.372549%,26.666667%);fill-opacity:1;" d="M 953.335938 391.261719 C 953.101562 391.261719 952.867188 391.261719 952.636719 391.261719 C 952.328125 394.121094 951.933594 397.621094 947.003906 397.621094 C 946.238281 397.621094 945.472656 397.621094 944.707031 397.621094 C 943.390625 397.621094 943.332031 397.425781 943.332031 396.5 C 943.332031 391.523438 943.332031 386.546875 943.332031 381.566406 C 943.332031 380.613281 943.332031 380.222656 945.996094 380.222656 C 946.304688 380.222656 946.609375 380.222656 946.917969 380.222656 C 946.917969 379.933594 946.917969 379.644531 946.917969 379.351562 C 945.910156 379.4375 943.359375 379.4375 942.210938 379.4375 C 941.121094 379.4375 938.933594 379.4375 937.953125 379.351562 C 937.953125 379.644531 937.953125 379.933594 937.953125 380.222656 C 938.175781 380.222656 938.402344 380.222656 938.625 380.222656 C 940.78125 380.222656 940.839844 380.53125 940.839844 381.539062 C 940.839844 386.460938 940.839844 391.382812 940.839844 396.304688 C 940.839844 397.3125 940.78125 397.621094 938.625 397.621094 C 938.402344 397.621094 938.175781 397.621094 937.953125 397.621094 C 937.953125 397.910156 937.953125 398.203125 937.953125 398.492188 C 942.820312 398.492188 947.683594 398.492188 952.550781 398.492188 C 952.8125 396.082031 953.074219 393.671875 953.335938 391.261719 Z M 953.335938 391.261719 "/>
<path style=" stroke:none;fill-rule:nonzero;fill:rgb(81.176471%,31.372549%,26.666667%);fill-opacity:1;" d="M 959.5 386.105469 C 958.191406 386.207031 956.886719 386.3125 955.578125 386.414062 C 955.578125 386.703125 955.578125 386.992188 955.578125 387.28125 C 957.398438 387.28125 957.652344 387.449219 957.652344 388.824219 C 957.652344 391.335938 957.652344 393.847656 957.652344 396.363281 C 957.652344 397.621094 957.34375 397.621094 955.464844 397.621094 C 955.464844 397.910156 955.464844 398.203125 955.464844 398.492188 C 956.363281 398.464844 957.875 398.40625 958.546875 398.40625 C 959.527344 398.40625 960.507812 398.464844 961.460938 398.492188 C 961.460938 398.203125 961.460938 397.910156 961.460938 397.621094 C 959.613281 397.621094 959.5 397.480469 959.5 396.390625 C 959.5 392.960938 959.5 389.535156 959.5 386.105469 Z M 959.613281 381.230469 C 959.613281 380.335938 958.910156 379.746094 958.128906 379.746094 C 957.257812 379.746094 956.640625 380.503906 956.640625 381.230469 C 956.640625 381.988281 957.257812 382.714844 958.128906 382.714844 C 958.910156 382.714844 959.613281 382.128906 959.613281 381.230469 Z M 959.613281 381.230469 "/>
<path style=" stroke:none;fill-rule:nonzero;fill:rgb(81.176471%,31.372549%,26.666667%);fill-opacity:1;" d="M 968.542969 393.671875 C 966.105469 393.671875 966.105469 390.871094 966.105469 390.226562 C 966.105469 389.46875 966.136719 388.570312 966.554688 387.871094 C 966.78125 387.535156 967.421875 386.75 968.542969 386.75 C 970.980469 386.75 970.980469 389.550781 970.980469 390.195312 C 970.980469 390.953125 970.953125 391.851562 970.535156 392.550781 C 970.308594 392.886719 969.664062 393.671875 968.542969 393.671875 Z M 965.292969 394.765625 C 965.292969 394.652344 965.292969 394.007812 965.769531 393.449219 C 966.863281 394.230469 968.011719 394.316406 968.542969 394.316406 C 971.152344 394.316406 973.082031 392.382812 973.082031 390.226562 C 973.082031 389.1875 972.636719 388.152344 971.933594 387.507812 C 972.945312 386.554688 973.953125 386.414062 974.457031 386.414062 C 974.511719 386.414062 974.652344 386.414062 974.738281 386.441406 C 974.429688 386.554688 974.289062 386.863281 974.289062 387.199219 C 974.289062 387.675781 974.652344 388.011719 975.101562 388.011719 C 975.382812 388.011719 975.914062 387.816406 975.914062 387.171875 C 975.914062 386.695312 975.578125 385.796875 974.484375 385.796875 C 973.925781 385.796875 972.691406 385.964844 971.515625 387.113281 C 970.335938 386.191406 969.160156 386.105469 968.542969 386.105469 C 965.9375 386.105469 964.003906 388.039062 964.003906 390.195312 C 964.003906 391.429688 964.621094 392.496094 965.320312 393.082031 C 964.957031 393.503906 964.453125 394.429688 964.453125 395.410156 C 964.453125 396.277344 964.816406 397.34375 965.6875 397.902344 C 964.003906 398.378906 963.109375 399.582031 963.109375 400.703125 C 963.109375 402.722656 965.882812 404.261719 969.300781 404.261719 C 972.609375 404.261719 975.523438 402.835938 975.523438 400.648438 C 975.523438 399.667969 975.128906 398.238281 973.699219 397.453125 C 972.214844 396.667969 970.589844 396.667969 968.878906 396.667969 C 968.179688 396.667969 966.976562 396.667969 966.78125 396.640625 C 965.882812 396.53125 965.292969 395.660156 965.292969 394.765625 Z M 969.328125 403.617188 C 966.5 403.617188 964.566406 402.191406 964.566406 400.703125 C 964.566406 399.414062 965.628906 398.378906 966.863281 398.292969 C 967.414062 398.292969 967.964844 398.292969 968.515625 398.292969 C 970.925781 398.292969 974.066406 398.292969 974.066406 400.703125 C 974.066406 402.21875 972.074219 403.617188 969.328125 403.617188 Z M 969.328125 403.617188 "/>
<path style=" stroke:none;fill-rule:nonzero;fill:rgb(81.176471%,31.372549%,26.666667%);fill-opacity:1;" d="M 979.417969 396.363281 C 979.417969 397.621094 979.109375 397.621094 977.230469 397.621094 C 977.230469 397.910156 977.230469 398.203125 977.230469 398.492188 C 978.210938 398.464844 979.640625 398.40625 980.398438 398.40625 C 981.125 398.40625 982.582031 398.464844 983.535156 398.492188 C 983.535156 398.203125 983.535156 397.910156 983.535156 397.621094 C 981.65625 397.621094 981.351562 397.621094 981.351562 396.363281 C 981.351562 394.644531 981.351562 392.925781 981.351562 391.207031 C 981.351562 388.292969 983.339844 386.722656 985.132812 386.722656 C 986.898438 386.722656 987.207031 388.234375 987.207031 389.832031 C 987.207031 392.007812 987.207031 394.183594 987.207031 396.363281 C 987.207031 397.621094 986.898438 397.621094 985.019531 397.621094 C 985.019531 397.910156 985.019531 398.203125 985.019531 398.492188 C 986 398.464844 987.429688 398.40625 988.1875 398.40625 C 988.914062 398.40625 990.371094 398.464844 991.324219 398.492188 C 991.324219 398.203125 991.324219 397.910156 991.324219 397.621094 C 989.867188 397.621094 989.167969 397.621094 989.140625 396.78125 C 989.140625 394.996094 989.140625 393.214844 989.140625 391.429688 C 989.140625 389.019531 989.140625 388.152344 988.269531 387.144531 C 987.878906 386.667969 986.953125 386.105469 985.328125 386.105469 C 982.976562 386.105469 981.742188 387.789062 981.265625 388.851562 C 981.265625 385.582031 981.265625 382.3125 981.265625 379.046875 C 979.921875 379.148438 978.574219 379.25 977.230469 379.351562 C 977.230469 379.644531 977.230469 379.933594 977.230469 380.222656 C 979.191406 380.222656 979.417969 380.417969 979.417969 381.792969 C 979.417969 386.648438 979.417969 391.503906 979.417969 396.363281 Z M 979.417969 396.363281 "/>
<path style=" stroke:none;fill-rule:nonzero;fill:rgb(81.176471%,31.372549%,26.666667%);fill-opacity:1;" d="M 995.96875 387.28125 C 997.304688 387.28125 998.640625 387.28125 999.976562 387.28125 C 999.976562 386.992188 999.976562 386.703125 999.976562 386.414062 C 998.640625 386.414062 997.304688 386.414062 995.96875 386.414062 C 995.96875 384.695312 995.96875 382.976562 995.96875 381.257812 C 995.738281 381.257812 995.503906 381.257812 995.269531 381.257812 C 995.242188 383.554688 994.402344 386.554688 991.65625 386.667969 C 991.65625 386.871094 991.65625 387.078125 991.65625 387.28125 C 992.449219 387.28125 993.242188 387.28125 994.035156 387.28125 C 994.035156 389.859375 994.035156 392.4375 994.035156 395.015625 C 994.035156 398.464844 996.640625 398.800781 997.652344 398.800781 C 999.640625 398.800781 1000.425781 396.808594 1000.425781 395.015625 C 1000.425781 394.484375 1000.425781 393.953125 1000.425781 393.417969 C 1000.191406 393.417969 999.957031 393.417969 999.722656 393.417969 C 999.722656 393.933594 999.722656 394.445312 999.722656 394.960938 C 999.722656 397.035156 998.882812 398.097656 997.847656 398.097656 C 995.96875 398.097656 995.96875 395.550781 995.96875 395.074219 C 995.96875 392.476562 995.96875 389.878906 995.96875 387.28125 Z M 995.96875 387.28125 "/>
<path style=" stroke:none;fill-rule:nonzero;fill:rgb(81.176471%,31.372549%,26.666667%);fill-opacity:1;" d="M 1012.929688 388.90625 C 1012.929688 394.707031 1017.46875 399.105469 1022.679688 399.105469 C 1027.246094 399.105469 1029.992188 395.210938 1029.992188 391.960938 C 1029.992188 391.683594 1029.992188 391.484375 1029.628906 391.484375 C 1029.320312 391.484375 1029.320312 391.652344 1029.292969 391.933594 C 1029.066406 395.941406 1026.070312 398.238281 1023.015625 398.238281 C 1021.304688 398.238281 1015.8125 397.285156 1015.8125 388.9375 C 1015.8125 380.558594 1021.277344 379.605469 1022.988281 379.605469 C 1026.042969 379.605469 1028.535156 382.15625 1029.097656 386.246094 C 1029.152344 386.636719 1029.152344 386.722656 1029.542969 386.722656 C 1029.992188 386.722656 1029.992188 386.636719 1029.992188 386.050781 C 1029.992188 383.835938 1029.992188 381.621094 1029.992188 379.410156 C 1029.992188 378.933594 1029.992188 378.738281 1029.683594 378.738281 C 1029.570312 378.738281 1029.460938 378.738281 1029.234375 379.074219 C 1028.769531 379.765625 1028.300781 380.457031 1027.835938 381.148438 C 1026.796875 380.136719 1025.367188 378.738281 1022.679688 378.738281 C 1017.4375 378.738281 1012.929688 383.191406 1012.929688 388.90625 Z M 1012.929688 388.90625 "/>
<path style=" stroke:none;fill-rule:nonzero;fill:rgb(81.176471%,31.372549%,26.666667%);fill-opacity:1;" d="M 1044.792969 392.496094 C 1044.792969 388.90625 1041.992188 385.9375 1038.601562 385.9375 C 1035.097656 385.9375 1032.378906 388.992188 1032.378906 392.496094 C 1032.378906 396.109375 1035.292969 398.800781 1038.574219 398.800781 C 1041.964844 398.800781 1044.792969 396.054688 1044.792969 392.496094 Z M 1038.601562 398.097656 C 1037.394531 398.097656 1036.164062 397.511719 1035.40625 396.222656 C 1034.707031 394.988281 1034.707031 393.277344 1034.707031 392.269531 C 1034.707031 391.179688 1034.707031 389.664062 1035.378906 388.433594 C 1036.136719 387.144531 1037.453125 386.554688 1038.574219 386.554688 C 1039.804688 386.554688 1041.011719 387.171875 1041.738281 388.375 C 1042.46875 389.582031 1042.46875 391.207031 1042.46875 392.269531 C 1042.46875 393.277344 1042.46875 394.792969 1041.851562 396.023438 C 1041.234375 397.285156 1040 398.097656 1038.601562 398.097656 Z M 1038.601562 398.097656 "/>
<path style=" stroke:none;fill-rule:nonzero;fill:rgb(81.176471%,31.372549%,26.666667%);fill-opacity:1;" d="M 1048.6875 388.851562 C 1048.6875 391.355469 1048.6875 393.859375 1048.6875 396.363281 C 1048.6875 397.621094 1048.378906 397.621094 1046.503906 397.621094 C 1046.503906 397.910156 1046.503906 398.203125 1046.503906 398.492188 C 1047.484375 398.464844 1048.914062 398.40625 1049.667969 398.40625 C 1050.398438 398.40625 1051.855469 398.464844 1052.808594 398.492188 C 1052.808594 398.203125 1052.808594 397.910156 1052.808594 397.621094 C 1050.929688 397.621094 1050.621094 397.621094 1050.621094 396.363281 C 1050.621094 394.644531 1050.621094 392.925781 1050.621094 391.207031 C 1050.621094 388.292969 1052.609375 386.722656 1054.402344 386.722656 C 1056.167969 386.722656 1056.476562 388.234375 1056.476562 389.832031 C 1056.476562 392.007812 1056.476562 394.183594 1056.476562 396.363281 C 1056.476562 397.621094 1056.167969 397.621094 1054.292969 397.621094 C 1054.292969 397.910156 1054.292969 398.203125 1054.292969 398.492188 C 1055.273438 398.464844 1056.703125 398.40625 1057.457031 398.40625 C 1058.1875 398.40625 1059.644531 398.464844 1060.597656 398.492188 C 1060.597656 398.203125 1060.597656 397.910156 1060.597656 397.621094 C 1059.140625 397.621094 1058.4375 397.621094 1058.410156 396.78125 C 1058.410156 394.996094 1058.410156 393.214844 1058.410156 391.429688 C 1058.410156 389.019531 1058.410156 388.152344 1057.542969 387.144531 C 1057.148438 386.667969 1056.226562 386.105469 1054.601562 386.105469 C 1052.554688 386.105469 1051.238281 387.3125 1050.453125 389.046875 C 1050.453125 388.066406 1050.453125 387.085938 1050.453125 386.105469 C 1049.136719 386.207031 1047.820312 386.3125 1046.503906 386.414062 C 1046.503906 386.703125 1046.503906 386.992188 1046.503906 387.28125 C 1048.464844 387.28125 1048.6875 387.480469 1048.6875 388.851562 Z M 1048.6875 388.851562 "/>
<path style=" stroke:none;fill-rule:nonzero;fill:rgb(81.176471%,31.372549%,26.666667%);fill-opacity:1;" d="M 1064.3125 391.429688 C 1064.480469 387.253906 1066.832031 386.554688 1067.785156 386.554688 C 1070.671875 386.554688 1070.953125 390.335938 1070.953125 391.429688 C 1068.738281 391.429688 1066.523438 391.429688 1064.3125 391.429688 Z M 1064.28125 392.019531 C 1066.886719 392.019531 1069.496094 392.019531 1072.101562 392.019531 C 1072.714844 392.019531 1072.800781 392.019531 1072.800781 391.429688 C 1072.800781 388.65625 1071.289062 385.9375 1067.785156 385.9375 C 1064.535156 385.9375 1061.957031 388.824219 1061.957031 392.328125 C 1061.957031 396.082031 1064.898438 398.800781 1068.121094 398.800781 C 1071.539062 398.800781 1072.800781 395.6875 1072.800781 395.15625 C 1072.800781 394.875 1072.578125 394.820312 1072.4375 394.820312 C 1072.183594 394.820312 1072.128906 394.988281 1072.070312 395.210938 C 1071.089844 398.097656 1068.570312 398.097656 1068.289062 398.097656 C 1066.886719 398.097656 1065.769531 397.257812 1065.125 396.222656 C 1064.28125 394.875 1064.28125 393.027344 1064.28125 392.019531 Z M 1064.28125 392.019531 "/>
<path style=" stroke:none;fill-rule:nonzero;fill:rgb(81.176471%,31.372549%,26.666667%);fill-opacity:1;" d="M 866.1875 686.636719 C 867.765625 686.636719 869.347656 686.636719 870.925781 686.636719 C 874.285156 686.636719 877.3125 684.367188 877.3125 681.566406 C 877.3125 678.820312 874.539062 676.351562 870.699219 676.351562 C 867.402344 676.351562 864.105469 676.351562 860.808594 676.351562 C 860.808594 676.644531 860.808594 676.933594 860.808594 677.222656 C 861.035156 677.222656 861.257812 677.222656 861.480469 677.222656 C 863.640625 677.222656 863.695312 677.53125 863.695312 678.539062 C 863.695312 683.460938 863.695312 688.382812 863.695312 693.304688 C 863.695312 694.3125 863.640625 694.621094 861.480469 694.621094 C 861.257812 694.621094 861.035156 694.621094 860.808594 694.621094 C 860.808594 694.910156 860.808594 695.203125 860.808594 695.492188 C 861.789062 695.40625 863.863281 695.40625 864.929688 695.40625 C 865.992188 695.40625 868.09375 695.40625 869.074219 695.492188 C 869.074219 695.203125 869.074219 694.910156 869.074219 694.621094 C 868.851562 694.621094 868.625 694.621094 868.402344 694.621094 C 866.246094 694.621094 866.1875 694.3125 866.1875 693.304688 C 866.1875 691.082031 866.1875 688.859375 866.1875 686.636719 Z M 866.105469 685.90625 C 866.105469 683.386719 866.105469 680.863281 866.105469 678.34375 C 866.105469 677.417969 866.160156 677.222656 867.476562 677.222656 C 868.308594 677.222656 869.140625 677.222656 869.972656 677.222656 C 874.425781 677.222656 874.425781 680.191406 874.425781 681.566406 C 874.425781 682.882812 874.425781 685.90625 869.972656 685.90625 C 868.683594 685.90625 867.394531 685.90625 866.105469 685.90625 Z M 866.105469 685.90625 "/>
<path style=" stroke:none;fill-rule:nonzero;fill:rgb(81.176471%,31.372549%,26.666667%);fill-opacity:1;" d="M 887.449219 693.363281 C 887.5625 694.480469 888.320312 695.660156 889.636719 695.660156 C 890.222656 695.660156 891.933594 695.265625 891.933594 692.996094 C 891.933594 692.472656 891.933594 691.949219 891.933594 691.429688 C 891.699219 691.429688 891.464844 691.429688 891.234375 691.429688 C 891.234375 691.949219 891.234375 692.472656 891.234375 692.996094 C 891.234375 694.621094 890.53125 694.789062 890.222656 694.789062 C 889.300781 694.789062 889.1875 693.53125 889.1875 693.390625 C 889.1875 691.519531 889.1875 689.652344 889.1875 687.785156 C 889.1875 686.609375 889.1875 685.515625 888.179688 684.480469 C 887.085938 683.386719 885.683594 682.9375 884.339844 682.9375 C 882.042969 682.9375 880.109375 684.253906 880.109375 686.105469 C 880.109375 686.945312 880.667969 687.421875 881.398438 687.421875 C 882.183594 687.421875 882.6875 686.859375 882.6875 686.132812 C 882.6875 685.796875 882.546875 684.871094 881.257812 684.84375 C 882.015625 683.863281 883.386719 683.554688 884.285156 683.554688 C 885.65625 683.554688 887.253906 684.648438 887.253906 687.140625 C 887.253906 687.488281 887.253906 687.832031 887.253906 688.179688 C 885.824219 688.261719 883.863281 688.347656 882.097656 689.1875 C 879.996094 690.140625 879.296875 691.597656 879.296875 692.828125 C 879.296875 695.097656 882.015625 695.800781 883.78125 695.800781 C 885.628906 695.800781 886.917969 694.679688 887.449219 693.363281 Z M 887.253906 688.765625 C 887.253906 689.699219 887.253906 690.632812 887.253906 691.566406 C 887.253906 694.230469 885.238281 695.183594 883.976562 695.183594 C 882.601562 695.183594 881.453125 694.203125 881.453125 692.800781 C 881.453125 691.261719 882.628906 688.933594 887.253906 688.765625 Z M 887.253906 688.765625 "/>
<path style=" stroke:none;fill-rule:nonzero;fill:rgb(81.176471%,31.372549%,26.666667%);fill-opacity:1;" d="M 897.957031 690.054688 C 898.574219 690.167969 900.871094 690.617188 900.871094 692.632812 C 900.871094 694.0625 899.890625 695.183594 897.707031 695.183594 C 895.351562 695.183594 894.34375 693.585938 893.8125 691.203125 C 893.726562 690.839844 893.699219 690.726562 893.417969 690.726562 C 893.054688 690.726562 893.054688 690.921875 893.054688 691.429688 C 893.054688 692.660156 893.054688 693.894531 893.054688 695.125 C 893.054688 695.601562 893.054688 695.800781 893.363281 695.800781 C 893.503906 695.800781 893.53125 695.769531 894.0625 695.238281 C 894.117188 695.183594 894.117188 695.125 894.625 694.59375 C 895.855469 695.769531 897.117188 695.800781 897.707031 695.800781 C 900.925781 695.800781 902.214844 693.921875 902.214844 691.90625 C 902.214844 690.417969 901.375 689.578125 901.039062 689.242188 C 900.113281 688.347656 899.023438 688.121094 897.84375 687.898438 C 896.277344 687.589844 894.398438 687.226562 894.398438 685.601562 C 894.398438 684.621094 895.128906 683.46875 897.539062 683.46875 C 900.621094 683.46875 900.757812 685.992188 900.816406 686.859375 C 900.84375 687.113281 901.097656 687.113281 901.152344 687.113281 C 901.515625 687.113281 901.515625 686.972656 901.515625 686.441406 C 901.515625 685.496094 901.515625 684.554688 901.515625 683.609375 C 901.515625 683.132812 901.515625 682.9375 901.207031 682.9375 C 901.066406 682.9375 901.011719 682.9375 900.648438 683.273438 C 900.5625 683.386719 900.28125 683.636719 900.171875 683.722656 C 899.105469 682.9375 897.957031 682.9375 897.539062 682.9375 C 894.117188 682.9375 893.054688 684.816406 893.054688 686.382812 C 893.054688 687.363281 893.503906 688.148438 894.257812 688.765625 C 895.15625 689.496094 895.941406 689.664062 897.957031 690.054688 Z M 897.957031 690.054688 "/>
<path style=" stroke:none;fill-rule:nonzero;fill:rgb(81.176471%,31.372549%,26.666667%);fill-opacity:1;" d="M 908.027344 684.28125 C 909.363281 684.28125 910.699219 684.28125 912.035156 684.28125 C 912.035156 683.992188 912.035156 683.703125 912.035156 683.414062 C 910.699219 683.414062 909.363281 683.414062 908.027344 683.414062 C 908.027344 681.695312 908.027344 679.976562 908.027344 678.257812 C 907.796875 678.257812 907.5625 678.257812 907.328125 678.257812 C 907.300781 680.554688 906.460938 683.554688 903.714844 683.667969 C 903.714844 683.871094 903.714844 684.078125 903.714844 684.28125 C 904.507812 684.28125 905.300781 684.28125 906.097656 684.28125 C 906.097656 686.859375 906.097656 689.4375 906.097656 692.015625 C 906.097656 695.464844 908.703125 695.800781 909.710938 695.800781 C 911.699219 695.800781 912.484375 693.808594 912.484375 692.015625 C 912.484375 691.484375 912.484375 690.953125 912.484375 690.417969 C 912.25 690.417969 912.015625 690.417969 911.785156 690.417969 C 911.785156 690.933594 911.785156 691.445312 911.785156 691.960938 C 911.785156 694.035156 910.941406 695.097656 909.90625 695.097656 C 908.027344 695.097656 908.027344 692.550781 908.027344 692.074219 C 908.027344 689.476562 908.027344 686.878906 908.027344 684.28125 Z M 908.027344 684.28125 "/>
<path style=" stroke:none;fill-rule:nonzero;fill:rgb(81.176471%,31.372549%,26.666667%);fill-opacity:1;" d="M 939.726562 688.261719 C 939.492188 688.261719 939.257812 688.261719 939.027344 688.261719 C 938.71875 691.121094 938.324219 694.621094 933.394531 694.621094 C 932.628906 694.621094 931.863281 694.621094 931.097656 694.621094 C 929.777344 694.621094 929.722656 694.425781 929.722656 693.5 C 929.722656 688.523438 929.722656 683.546875 929.722656 678.566406 C 929.722656 677.613281 929.722656 677.222656 932.382812 677.222656 C 932.691406 677.222656 933 677.222656 933.308594 677.222656 C 933.308594 676.933594 933.308594 676.644531 933.308594 676.351562 C 932.300781 676.4375 929.75 676.4375 928.601562 676.4375 C 927.507812 676.4375 925.324219 676.4375 924.34375 676.351562 C 924.34375 676.644531 924.34375 676.933594 924.34375 677.222656 C 924.566406 677.222656 924.792969 677.222656 925.015625 677.222656 C 927.171875 677.222656 927.230469 677.53125 927.230469 678.539062 C 927.230469 683.460938 927.230469 688.382812 927.230469 693.304688 C 927.230469 694.3125 927.171875 694.621094 925.015625 694.621094 C 924.792969 694.621094 924.566406 694.621094 924.34375 694.621094 C 924.34375 694.910156 924.34375 695.203125 924.34375 695.492188 C 929.210938 695.492188 934.074219 695.492188 938.941406 695.492188 C 939.203125 693.082031 939.464844 690.671875 939.726562 688.261719 Z M 939.726562 688.261719 "/>
<path style=" stroke:none;fill-rule:nonzero;fill:rgb(81.176471%,31.372549%,26.666667%);fill-opacity:1;" d="M 945.890625 683.105469 C 944.582031 683.207031 943.273438 683.3125 941.96875 683.414062 C 941.96875 683.703125 941.96875 683.992188 941.96875 684.28125 C 943.789062 684.28125 944.042969 684.449219 944.042969 685.824219 C 944.042969 688.335938 944.042969 690.847656 944.042969 693.363281 C 944.042969 694.621094 943.734375 694.621094 941.855469 694.621094 C 941.855469 694.910156 941.855469 695.203125 941.855469 695.492188 C 942.753906 695.464844 944.265625 695.40625 944.9375 695.40625 C 945.917969 695.40625 946.898438 695.464844 947.851562 695.492188 C 947.851562 695.203125 947.851562 694.910156 947.851562 694.621094 C 946.003906 694.621094 945.890625 694.480469 945.890625 693.390625 C 945.890625 689.960938 945.890625 686.535156 945.890625 683.105469 Z M 946.003906 678.230469 C 946.003906 677.335938 945.300781 676.746094 944.515625 676.746094 C 943.648438 676.746094 943.03125 677.503906 943.03125 678.230469 C 943.03125 678.988281 943.648438 679.714844 944.515625 679.714844 C 945.300781 679.714844 946.003906 679.128906 946.003906 678.230469 Z M 946.003906 678.230469 "/>
<path style=" stroke:none;fill-rule:nonzero;fill:rgb(81.176471%,31.372549%,26.666667%);fill-opacity:1;" d="M 954.933594 690.671875 C 952.496094 690.671875 952.496094 687.871094 952.496094 687.226562 C 952.496094 686.46875 952.523438 685.570312 952.945312 684.871094 C 953.167969 684.535156 953.8125 683.75 954.933594 683.75 C 957.371094 683.75 957.371094 686.550781 957.371094 687.195312 C 957.371094 687.953125 957.34375 688.851562 956.925781 689.550781 C 956.699219 689.886719 956.054688 690.671875 954.933594 690.671875 Z M 951.683594 691.765625 C 951.683594 691.652344 951.683594 691.007812 952.160156 690.449219 C 953.253906 691.230469 954.402344 691.316406 954.933594 691.316406 C 957.539062 691.316406 959.472656 689.382812 959.472656 687.226562 C 959.472656 686.1875 959.027344 685.152344 958.324219 684.507812 C 959.332031 683.554688 960.34375 683.414062 960.847656 683.414062 C 960.902344 683.414062 961.042969 683.414062 961.128906 683.441406 C 960.820312 683.554688 960.679688 683.863281 960.679688 684.199219 C 960.679688 684.675781 961.042969 685.011719 961.492188 685.011719 C 961.769531 685.011719 962.304688 684.816406 962.304688 684.171875 C 962.304688 683.695312 961.96875 682.796875 960.875 682.796875 C 960.3125 682.796875 959.082031 682.964844 957.90625 684.113281 C 956.726562 683.191406 955.550781 683.105469 954.933594 683.105469 C 952.328125 683.105469 950.394531 685.039062 950.394531 687.195312 C 950.394531 688.429688 951.011719 689.496094 951.710938 690.082031 C 951.347656 690.503906 950.84375 691.429688 950.84375 692.410156 C 950.84375 693.277344 951.207031 694.34375 952.078125 694.902344 C 950.394531 695.378906 949.5 696.582031 949.5 697.703125 C 949.5 699.722656 952.273438 701.261719 955.691406 701.261719 C 958.996094 701.261719 961.910156 699.835938 961.910156 697.648438 C 961.910156 696.667969 961.519531 695.238281 960.089844 694.453125 C 958.605469 693.667969 956.980469 693.667969 955.269531 693.667969 C 954.570312 693.667969 953.367188 693.667969 953.167969 693.640625 C 952.273438 693.53125 951.683594 692.660156 951.683594 691.765625 Z M 955.71875 700.617188 C 952.890625 700.617188 950.957031 699.191406 950.957031 697.703125 C 950.957031 696.414062 952.019531 695.378906 953.253906 695.292969 C 953.804688 695.292969 954.355469 695.292969 954.90625 695.292969 C 957.316406 695.292969 960.453125 695.292969 960.453125 697.703125 C 960.453125 699.21875 958.464844 700.617188 955.71875 700.617188 Z M 955.71875 700.617188 "/>
<path style=" stroke:none;fill-rule:nonzero;fill:rgb(81.176471%,31.372549%,26.666667%);fill-opacity:1;" d="M 965.804688 693.363281 C 965.804688 694.621094 965.5 694.621094 963.621094 694.621094 C 963.621094 694.910156 963.621094 695.203125 963.621094 695.492188 C 964.601562 695.464844 966.03125 695.40625 966.785156 695.40625 C 967.515625 695.40625 968.972656 695.464844 969.925781 695.492188 C 969.925781 695.203125 969.925781 694.910156 969.925781 694.621094 C 968.046875 694.621094 967.738281 694.621094 967.738281 693.363281 C 967.738281 691.644531 967.738281 689.925781 967.738281 688.207031 C 967.738281 685.292969 969.730469 683.722656 971.523438 683.722656 C 973.289062 683.722656 973.597656 685.234375 973.597656 686.832031 C 973.597656 689.007812 973.597656 691.183594 973.597656 693.363281 C 973.597656 694.621094 973.289062 694.621094 971.410156 694.621094 C 971.410156 694.910156 971.410156 695.203125 971.410156 695.492188 C 972.390625 695.464844 973.820312 695.40625 974.578125 695.40625 C 975.304688 695.40625 976.761719 695.464844 977.714844 695.492188 C 977.714844 695.203125 977.714844 694.910156 977.714844 694.621094 C 976.257812 694.621094 975.558594 694.621094 975.527344 693.78125 C 975.527344 691.996094 975.527344 690.214844 975.527344 688.429688 C 975.527344 686.019531 975.527344 685.152344 974.660156 684.144531 C 974.269531 683.667969 973.34375 683.105469 971.71875 683.105469 C 969.363281 683.105469 968.132812 684.789062 967.65625 685.851562 C 967.65625 682.582031 967.65625 679.3125 967.65625 676.046875 C 966.3125 676.148438 964.964844 676.25 963.621094 676.351562 C 963.621094 676.644531 963.621094 676.933594 963.621094 677.222656 C 965.582031 677.222656 965.804688 677.417969 965.804688 678.792969 C 965.804688 683.648438 965.804688 688.503906 965.804688 693.363281 Z M 965.804688 693.363281 "/>
<path style=" stroke:none;fill-rule:nonzero;fill:rgb(81.176471%,31.372549%,26.666667%);fill-opacity:1;" d="M 982.359375 684.28125 C 983.695312 684.28125 985.03125 684.28125 986.367188 684.28125 C 986.367188 683.992188 986.367188 683.703125 986.367188 683.414062 C 985.03125 683.414062 983.695312 683.414062 982.359375 683.414062 C 982.359375 681.695312 982.359375 679.976562 982.359375 678.257812 C 982.125 678.257812 981.894531 678.257812 981.660156 678.257812 C 981.632812 680.554688 980.789062 683.554688 978.042969 683.667969 C 978.042969 683.871094 978.042969 684.078125 978.042969 684.28125 C 978.839844 684.28125 979.632812 684.28125 980.425781 684.28125 C 980.425781 686.859375 980.425781 689.4375 980.425781 692.015625 C 980.425781 695.464844 983.03125 695.800781 984.042969 695.800781 C 986.03125 695.800781 986.816406 693.808594 986.816406 692.015625 C 986.816406 691.484375 986.816406 690.953125 986.816406 690.417969 C 986.582031 690.417969 986.347656 690.417969 986.113281 690.417969 C 986.113281 690.933594 986.113281 691.445312 986.113281 691.960938 C 986.113281 694.035156 985.273438 695.097656 984.238281 695.097656 C 982.359375 695.097656 982.359375 692.550781 982.359375 692.074219 C 982.359375 689.476562 982.359375 686.878906 982.359375 684.28125 Z M 982.359375 684.28125 "/>
<path style=" stroke:none;fill-rule:nonzero;fill:rgb(81.176471%,31.372549%,26.666667%);fill-opacity:1;" d="M 999.316406 685.90625 C 999.316406 691.707031 1003.859375 696.105469 1009.070312 696.105469 C 1013.636719 696.105469 1016.382812 692.210938 1016.382812 688.960938 C 1016.382812 688.683594 1016.382812 688.484375 1016.019531 688.484375 C 1015.710938 688.484375 1015.710938 688.652344 1015.683594 688.933594 C 1015.457031 692.941406 1012.460938 695.238281 1009.40625 695.238281 C 1007.695312 695.238281 1002.203125 694.285156 1002.203125 685.9375 C 1002.203125 677.558594 1007.667969 676.605469 1009.378906 676.605469 C 1012.429688 676.605469 1014.925781 679.15625 1015.484375 683.246094 C 1015.542969 683.636719 1015.542969 683.722656 1015.933594 683.722656 C 1016.382812 683.722656 1016.382812 683.636719 1016.382812 683.050781 C 1016.382812 680.835938 1016.382812 678.621094 1016.382812 676.410156 C 1016.382812 675.933594 1016.382812 675.738281 1016.074219 675.738281 C 1015.960938 675.738281 1015.851562 675.738281 1015.625 676.074219 C 1015.160156 676.765625 1014.691406 677.457031 1014.226562 678.148438 C 1013.1875 677.136719 1011.757812 675.738281 1009.070312 675.738281 C 1003.828125 675.738281 999.316406 680.191406 999.316406 685.90625 Z M 999.316406 685.90625 "/>
<path style=" stroke:none;fill-rule:nonzero;fill:rgb(81.176471%,31.372549%,26.666667%);fill-opacity:1;" d="M 1031.183594 689.496094 C 1031.183594 685.90625 1028.382812 682.9375 1024.992188 682.9375 C 1021.488281 682.9375 1018.769531 685.992188 1018.769531 689.496094 C 1018.769531 693.109375 1021.683594 695.800781 1024.960938 695.800781 C 1028.351562 695.800781 1031.183594 693.054688 1031.183594 689.496094 Z M 1024.992188 695.097656 C 1023.785156 695.097656 1022.554688 694.511719 1021.796875 693.222656 C 1021.097656 691.988281 1021.097656 690.277344 1021.097656 689.269531 C 1021.097656 688.179688 1021.097656 686.664062 1021.769531 685.433594 C 1022.523438 684.144531 1023.84375 683.554688 1024.960938 683.554688 C 1026.195312 683.554688 1027.402344 684.171875 1028.128906 685.375 C 1028.859375 686.582031 1028.859375 688.207031 1028.859375 689.269531 C 1028.859375 690.277344 1028.859375 691.792969 1028.242188 693.023438 C 1027.625 694.285156 1026.390625 695.097656 1024.992188 695.097656 Z M 1024.992188 695.097656 "/>
<path style=" stroke:none;fill-rule:nonzero;fill:rgb(81.176471%,31.372549%,26.666667%);fill-opacity:1;" d="M 1035.078125 685.851562 C 1035.078125 688.355469 1035.078125 690.859375 1035.078125 693.363281 C 1035.078125 694.621094 1034.769531 694.621094 1032.890625 694.621094 C 1032.890625 694.910156 1032.890625 695.203125 1032.890625 695.492188 C 1033.875 695.464844 1035.300781 695.40625 1036.058594 695.40625 C 1036.789062 695.40625 1038.246094 695.464844 1039.195312 695.492188 C 1039.195312 695.203125 1039.195312 694.910156 1039.195312 694.621094 C 1037.320312 694.621094 1037.011719 694.621094 1037.011719 693.363281 C 1037.011719 691.644531 1037.011719 689.925781 1037.011719 688.207031 C 1037.011719 685.292969 1039 683.722656 1040.792969 683.722656 C 1042.558594 683.722656 1042.867188 685.234375 1042.867188 686.832031 C 1042.867188 689.007812 1042.867188 691.183594 1042.867188 693.363281 C 1042.867188 694.621094 1042.558594 694.621094 1040.683594 694.621094 C 1040.683594 694.910156 1040.683594 695.203125 1040.683594 695.492188 C 1041.664062 695.464844 1043.089844 695.40625 1043.847656 695.40625 C 1044.578125 695.40625 1046.035156 695.464844 1046.988281 695.492188 C 1046.988281 695.203125 1046.988281 694.910156 1046.988281 694.621094 C 1045.53125 694.621094 1044.828125 694.621094 1044.800781 693.78125 C 1044.800781 691.996094 1044.800781 690.214844 1044.800781 688.429688 C 1044.800781 686.019531 1044.800781 685.152344 1043.933594 684.144531 C 1043.539062 683.667969 1042.617188 683.105469 1040.988281 683.105469 C 1038.945312 683.105469 1037.628906 684.3125 1036.84375 686.046875 C 1036.84375 685.066406 1036.84375 684.085938 1036.84375 683.105469 C 1035.527344 683.207031 1034.210938 683.3125 1032.890625 683.414062 C 1032.890625 683.703125 1032.890625 683.992188 1032.890625 684.28125 C 1034.855469 684.28125 1035.078125 684.480469 1035.078125 685.851562 Z M 1035.078125 685.851562 "/>
<path style=" stroke:none;fill-rule:nonzero;fill:rgb(81.176471%,31.372549%,26.666667%);fill-opacity:1;" d="M 1050.699219 688.429688 C 1050.867188 684.253906 1053.222656 683.554688 1054.175781 683.554688 C 1057.0625 683.554688 1057.339844 687.335938 1057.339844 688.429688 C 1055.128906 688.429688 1052.914062 688.429688 1050.699219 688.429688 Z M 1050.671875 689.019531 C 1053.277344 689.019531 1055.882812 689.019531 1058.492188 689.019531 C 1059.105469 689.019531 1059.191406 689.019531 1059.191406 688.429688 C 1059.191406 685.65625 1057.675781 682.9375 1054.175781 682.9375 C 1050.925781 682.9375 1048.347656 685.824219 1048.347656 689.328125 C 1048.347656 693.082031 1051.289062 695.800781 1054.511719 695.800781 C 1057.929688 695.800781 1059.191406 692.6875 1059.191406 692.15625 C 1059.191406 691.875 1058.964844 691.820312 1058.828125 691.820312 C 1058.574219 691.820312 1058.519531 691.988281 1058.460938 692.210938 C 1057.480469 695.097656 1054.960938 695.097656 1054.679688 695.097656 C 1053.277344 695.097656 1052.15625 694.257812 1051.511719 693.222656 C 1050.671875 691.875 1050.671875 690.027344 1050.671875 689.019531 Z M 1050.671875 689.019531 "/>
<path style=" stroke:none;fill-rule:nonzero;fill:rgb(13.72549%,41.960784%,55.686275%);fill-opacity:1;" d="M 1120.050781 454.464844 C 1118.539062 453.90625 1115.402344 451.859375 1115.402344 445.414062 C 1115.402344 438.128906 1119.324219 435.859375 1121.902344 435.859375 C 1124.621094 435.859375 1128.429688 438.269531 1128.429688 445.414062 C 1128.429688 447.601562 1128.09375 451.550781 1125.125 453.738281 C 1124.507812 452.167969 1123.609375 450.765625 1121.957031 450.765625 C 1120.527344 450.765625 1119.660156 451.972656 1119.660156 453.121094 C 1119.660156 453.878906 1120.023438 454.410156 1120.050781 454.464844 Z M 1124.394531 454.1875 C 1123.441406 454.71875 1122.546875 454.828125 1121.929688 454.828125 C 1120.5 454.828125 1120.277344 453.542969 1120.277344 453.121094 C 1120.277344 452.308594 1120.863281 451.382812 1121.957031 451.382812 C 1123.472656 451.382812 1124.085938 452.558594 1124.394531 454.1875 Z M 1125.542969 454.71875 C 1128.851562 453.234375 1131.234375 449.644531 1131.234375 445.414062 C 1131.234375 439.699219 1127 435.160156 1121.902344 435.160156 C 1116.886719 435.160156 1112.597656 439.644531 1112.597656 445.414062 C 1112.597656 451.074219 1116.832031 455.53125 1121.929688 455.53125 C 1122.796875 455.53125 1123.777344 455.363281 1124.59375 455.109375 C 1125.011719 457.773438 1125.40625 460.351562 1128.011719 460.351562 C 1130.867188 460.351562 1131.402344 456.625 1131.402344 455.195312 C 1131.402344 454.914062 1131.402344 454.605469 1131.09375 454.605469 C 1130.839844 454.605469 1130.8125 454.828125 1130.785156 455.109375 C 1130.617188 456.625 1129.4375 457.464844 1128.234375 457.464844 C 1126.917969 457.464844 1126.21875 456.511719 1125.542969 454.71875 Z M 1125.542969 454.71875 "/>
<path style="fill:none;stroke-width:0.005;stroke-linecap:butt;stroke-linejoin:miter;stroke:rgb(0%,0%,0%);stroke-opacity:1;stroke-miterlimit:10;" d="M 0.289988 0 C 0.439988 0 0.589988 0 0.739988 0 " transform="matrix(135,0,0,-135,960,540)"/>
<path style=" stroke:none;fill-rule:nonzero;fill:rgb(0%,0%,0%);fill-opacity:1;" d="M 1066.648438 540 C 1064.398438 538.875 1062.148438 537.75 1059.898438 536.625 C 1059.898438 538.875 1059.898438 541.125 1059.898438 543.375 C 1062.148438 542.25 1064.398438 541.125 1066.648438 540 Z M 1066.648438 540 "/>
<path style="fill:none;stroke-width:0.005;stroke-linecap:butt;stroke-linejoin:miter;stroke:rgb(0%,0%,0%);stroke-opacity:1;stroke-miterlimit:10;" d="M 0 0.289988 C 0 0.439988 0 0.589988 0 0.739988 " transform="matrix(135,0,0,-135,960,540)"/>
<path style=" stroke:none;fill-rule:nonzero;fill:rgb(0%,0%,0%);fill-opacity:1;" d="M 960 433.351562 C 958.875 435.601562 957.75 437.851562 956.625 440.101562 C 958.875 440.101562 961.125 440.101562 963.375 440.101562 C 962.25 437.851562 961.125 435.601562 960 433.351562 Z M 960 433.351562 "/>
<path style=" stroke:none;fill-rule:nonzero;fill:rgb(0%,0%,0%);fill-opacity:1;" d="M 981.191406 464.355469 C 982.527344 464.355469 983.859375 464.355469 985.195312 464.355469 C 985.195312 464.066406 985.195312 463.773438 985.195312 463.484375 C 983.859375 463.484375 982.527344 463.484375 981.191406 463.484375 C 981.191406 461.765625 981.191406 460.046875 981.191406 458.328125 C 980.957031 458.328125 980.722656 458.328125 980.488281 458.328125 C 980.460938 460.628906 979.621094 463.625 976.875 463.738281 C 976.875 463.941406 976.875 464.148438 976.875 464.355469 C 977.667969 464.355469 978.460938 464.355469 979.257812 464.355469 C 979.257812 466.933594 979.257812 469.507812 979.257812 472.085938 C 979.257812 475.535156 981.863281 475.871094 982.871094 475.871094 C 984.859375 475.871094 985.644531 473.878906 985.644531 472.085938 C 985.644531 471.554688 985.644531 471.023438 985.644531 470.492188 C 985.410156 470.492188 985.179688 470.492188 984.945312 470.492188 C 984.945312 471.003906 984.945312 471.519531 984.945312 472.03125 C 984.945312 474.105469 984.105469 475.167969 983.066406 475.167969 C 981.191406 475.167969 981.191406 472.621094 981.191406 472.144531 C 981.191406 469.546875 981.191406 466.949219 981.191406 464.355469 Z M 981.191406 464.355469 "/>
<path style=" stroke:none;fill-rule:nonzero;fill:rgb(0%,0%,0%);fill-opacity:1;" d="M 1087.855469 539.453125 C 1088.695312 538.390625 1089.761719 537.015625 1090.433594 536.289062 C 1091.300781 535.277344 1092.449219 534.859375 1093.769531 534.832031 C 1093.769531 534.539062 1093.769531 534.25 1093.769531 533.960938 C 1093.039062 534.019531 1092.199219 534.046875 1091.46875 534.046875 C 1090.628906 534.046875 1089.144531 533.988281 1088.78125 533.960938 C 1088.78125 534.25 1088.78125 534.539062 1088.78125 534.832031 C 1089.367188 534.886719 1089.59375 535.25 1089.59375 535.699219 C 1089.59375 536.148438 1089.3125 536.511719 1089.171875 536.679688 C 1088.59375 537.40625 1088.015625 538.136719 1087.433594 538.863281 C 1086.707031 537.921875 1085.976562 536.980469 1085.25 536.035156 C 1084.996094 535.753906 1084.996094 535.699219 1084.996094 535.53125 C 1084.996094 535.109375 1085.417969 534.859375 1085.976562 534.832031 C 1085.976562 534.539062 1085.976562 534.25 1085.976562 533.960938 C 1085.25 533.988281 1083.398438 534.046875 1082.953125 534.046875 C 1082.363281 534.046875 1081.046875 534.019531 1080.289062 533.960938 C 1080.289062 534.25 1080.289062 534.539062 1080.289062 534.832031 C 1082.25 534.832031 1082.28125 534.859375 1083.597656 536.539062 C 1084.519531 537.746094 1085.445312 538.949219 1086.371094 540.152344 C 1085.492188 541.265625 1084.613281 542.378906 1083.738281 543.488281 C 1082.390625 545.113281 1080.738281 545.167969 1080.148438 545.167969 C 1080.148438 545.460938 1080.148438 545.75 1080.148438 546.039062 C 1080.878906 545.980469 1081.746094 545.953125 1082.476562 545.953125 C 1083.289062 545.953125 1084.464844 546.011719 1085.136719 546.039062 C 1085.136719 545.75 1085.136719 545.460938 1085.136719 545.167969 C 1084.519531 545.085938 1084.324219 544.722656 1084.324219 544.300781 C 1084.324219 543.683594 1085.136719 542.761719 1086.847656 540.742188 C 1087.554688 541.675781 1088.265625 542.609375 1088.976562 543.542969 C 1089.199219 543.851562 1089.566406 544.300781 1089.566406 544.46875 C 1089.566406 544.722656 1089.3125 545.140625 1088.554688 545.167969 C 1088.554688 545.460938 1088.554688 545.75 1088.554688 546.039062 C 1089.398438 546.011719 1090.964844 545.953125 1091.582031 545.953125 C 1092.339844 545.953125 1093.429688 545.980469 1094.273438 546.039062 C 1094.273438 545.75 1094.273438 545.460938 1094.273438 545.167969 C 1092.757812 545.167969 1092.253906 545.113281 1091.609375 544.300781 C 1090.359375 542.683594 1089.105469 541.070312 1087.855469 539.453125 Z M 1087.855469 539.453125 "/>
</g>
</svg>
